<?xml version="1.0" encoding="UTF-8"?>
<svg id="Layer_1" data-name="Layer 1" xmlns="http://www.w3.org/2000/svg" viewBox="0 0 582.786 100.893">
  <defs>
    <style>
      .cls-1 {
        fill: #58595b;
      }

      .cls-2 {
        fill: #004282;
      }

      .cls-3 {
        fill: #fff;
      }

      .cls-4 {
        fill: #602d1a;
      }

      .cls-5 {
        fill: #f68b1f;
      }

      .cls-6 {
        fill: #319645;
      }
    </style>
  </defs>
  <g>
    <path class="cls-1" d="M276.547,89.311V24.263c-.798-.433-1.34-1.281-1.34-2.256,0-1.419,1.153-2.572,2.572-2.572,1.428,0,2.581,1.153,2.581,2.572,0,.986-.542,1.832-1.35,2.266v65.038c0,.68-.542,1.232-1.232,1.232-.68,0-1.232-.552-1.232-1.232Z"/>
    <path class="cls-1" d="M262.645,50.865c0,.976-.542,1.823-1.34,2.256v40.505c0,.68-.552,1.232-1.232,1.232s-1.232-.552-1.232-1.232v-40.495c-.808-.434-1.35-1.281-1.35-2.266,0-1.419,1.153-2.572,2.582-2.572,1.419,0,2.571,1.153,2.571,2.572Z"/>
    <g>
      <path class="cls-6" d="M289.218,36.461c0,.985-.541,1.832-1.35,2.266v50.603c0,5.38-4.227,9.784-9.527,10.08-.187,0-.374.01-.562.01-.177,0-.364,0-.542-.01-5.301-.286-9.537-4.69-9.537-10.08v-50.603c-.808-.434-1.35-1.281-1.35-2.266,0-1.419,1.152-2.572,2.581-2.572,1.419,0,2.572,1.153,2.572,2.572,0,.976-.542,1.823-1.34,2.256v50.613c0,4.069,3.192,7.4,7.192,7.616.138.01.286.01.424.01.148,0,.286,0,.433-.01,4.001-.226,7.192-3.557,7.192-7.616v-50.613c-.798-.434-1.34-1.281-1.34-2.256,0-1.419,1.152-2.572,2.571-2.572,1.429,0,2.581,1.153,2.581,2.572Z"/>
      <path class="cls-6" d="M315.091,62.019c0,9.36-3.488,18.365-9.823,25.341-.019.02-.029.029-.049.039-.216.227-.522.364-.867.364-.089,0-.167-.009-.246-.029-.177-.03-.345-.108-.483-.217-.039-.02-.069-.04-.099-.069-.02-.02-.029-.03-.04-.049-.226-.216-.364-.522-.364-.867v-19.006c-.808-.433-1.35-1.281-1.35-2.256,0-1.419,1.162-2.572,2.581-2.572,1.429,0,2.582,1.153,2.582,2.572,0,.985-.542,1.832-1.35,2.266v15.557c4.503-6.059,7.045-13.567,7.045-21.075,0-7.449-2.434-14.621-7.035-20.75l-27.814-37.017-27.805,37.017c-9.508,12.651-9.37,29.421.01,41.855v-15.587c-.808-.433-1.35-1.281-1.35-2.266,0-1.419,1.152-2.572,2.581-2.572,1.419,0,2.582,1.153,2.582,2.572,0,.985-.552,1.832-1.35,2.266v19.006c0,.335-.138.651-.364.867-.01.02-.02.03-.04.049-.029.02-.059.049-.089.069-.138.108-.306.187-.492.217-.079.019-.158.029-.247.029-.207,0-.404-.049-.571-.148-.049-.02-.099-.049-.138-.079-.118-.089-.227-.197-.315-.315-12.158-13.488-13.055-32.977-2.187-47.441L276.794,1.464c.473-.621,1.507-.621,1.97,0l28.8,38.327c4.926,6.562,7.528,14.247,7.528,22.228Z"/>
    </g>
    <path class="cls-1" d="M298.075,50.865c0,.986-.542,1.832-1.35,2.266v40.485c0,.68-.552,1.232-1.232,1.232s-1.232-.552-1.232-1.232v-40.495c-.798-.434-1.34-1.281-1.34-2.256,0-1.419,1.153-2.572,2.572-2.572,1.428,0,2.581,1.153,2.581,2.572Z"/>
    <g>
      <path class="cls-1" d="M337.776,54.093c-4.242-2.335-7.567-5.546-9.976-9.637-2.409-4.089-3.612-8.695-3.612-13.815s1.202-9.724,3.612-13.815c2.409-4.089,5.746-7.303,10.015-9.637,4.265-2.332,9.032-3.5,14.304-3.5,4.112,0,7.876.69,11.292,2.07,3.411,1.38,6.322,3.425,8.73,6.136l-4.892,4.743c-3.964-4.166-8.911-6.249-14.829-6.249-3.917,0-7.453.879-10.618,2.636-3.161,1.756-5.633,4.177-7.415,7.263-1.782,3.089-2.671,6.54-2.671,10.352s.889,7.266,2.671,10.352c1.782,3.087,4.254,5.509,7.415,7.266,3.165,1.756,6.701,2.634,10.618,2.634,5.871,0,10.815-2.107,14.829-6.324l4.892,4.743c-2.409,2.71-5.331,4.769-8.77,6.173-3.439,1.406-7.215,2.109-11.331,2.109-5.268,0-10.023-1.167-14.265-3.502Z"/>
      <path class="cls-1" d="M380.461,8.057c-.928-.905-1.394-2.007-1.394-3.313s.466-2.421,1.394-3.351c.928-.928,2.096-1.392,3.502-1.392s2.57.44,3.502,1.318c.925.879,1.391,1.97,1.391,3.274,0,1.355-.466,2.497-1.391,3.425-.932.93-2.1,1.392-3.502,1.392s-2.573-.451-3.502-1.354ZM380.347,17.091h7.227v39.901h-7.227V17.091Z"/>
      <path class="cls-1" d="M440.58,34.293c1.754,2.233,2.632,5.057,2.632,8.469,0,4.569-1.72,8.082-5.155,10.54-3.438,2.46-8.444,3.689-15.02,3.689h-25.146V4.291h23.642c6.02,0,10.677,1.205,13.963,3.615,3.286,2.409,4.931,5.746,4.931,10.012,0,2.761-.638,5.147-1.919,7.152-1.281,2.009-3,3.539-5.158,4.593,3.063.855,5.472,2.398,7.23,4.631ZM405.419,10.389v16.864h15.437c3.862,0,6.834-.714,8.918-2.144,2.084-1.431,3.126-3.525,3.126-6.286s-1.042-4.857-3.126-6.286c-2.084-1.431-5.056-2.146-8.918-2.146h-15.437ZM432.374,48.786c2.154-1.404,3.236-3.613,3.236-6.625,0-5.873-4.293-8.809-12.875-8.809h-17.316v17.542h17.316c4.266,0,7.477-.702,9.639-2.107Z"/>
      <path class="cls-1" d="M490.114,50.443v6.549h-38.248V4.291h37.19v6.551h-29.662v16.187h26.426v6.4h-26.426v17.014h30.719Z"/>
      <path class="cls-1" d="M504.681,55.75c-3.689-1.23-6.588-2.824-8.695-4.78l2.785-5.873c2.01,1.807,4.579,3.274,7.716,4.404,3.137,1.131,6.364,1.694,9.674,1.694,4.367,0,7.63-.74,9.787-2.221,2.158-1.48,3.24-3.451,3.24-5.91,0-1.805-.592-3.274-1.771-4.404-1.179-1.128-2.636-1.994-4.367-2.596-1.731-.601-4.179-1.279-7.34-2.033-3.964-.952-7.164-1.907-9.6-2.861-2.432-.952-4.516-2.42-6.248-4.404-1.731-1.982-2.596-4.653-2.596-8.017,0-2.811.74-5.345,2.221-7.603,1.48-2.26,3.725-4.065,6.737-5.421,3.013-1.355,6.749-2.033,11.218-2.033,3.11,0,6.173.402,9.185,1.205,3.012.803,5.597,1.957,7.755,3.462l-2.483,6.025c-2.209-1.406-4.571-2.472-7.077-3.2-2.511-.727-4.971-1.092-7.379-1.092-4.265,0-7.466.779-9.6,2.334-2.131,1.557-3.2,3.564-3.2,6.024,0,1.805.603,3.274,1.809,4.403,1.202,1.13,2.695,2.009,4.477,2.636,1.782.629,4.206,1.293,7.266,1.996,3.963.954,7.151,1.908,9.561,2.86,2.409.956,4.481,2.411,6.212,4.367,1.731,1.959,2.597,4.593,2.597,7.907,0,2.759-.752,5.282-2.256,7.565-1.508,2.284-3.791,4.091-6.85,5.421-3.063,1.33-6.827,1.996-11.296,1.996-3.965,0-7.791-.615-11.481-1.845Z"/>
      <path class="cls-1" d="M557.264,10.841h-18.068v-6.551h43.59v6.551h-18.068v46.15h-7.453V10.841Z"/>
    </g>
    <g>
      <g>
        <path class="cls-1" d="M326.121,79.662c-.604-.327-1.077-.781-1.419-1.36-.344-.58-.513-1.233-.513-1.96s.171-1.38.517-1.959.822-1.032,1.425-1.36c.604-.329,1.28-.493,2.027-.493.608,0,1.162.106,1.663.318.502.21.925.519,1.27.92l-.889.837c-.536-.578-1.196-.869-1.979-.869-.51,0-.963.112-1.367.333-.402.224-.716.532-.941.926-.227.396-.34.844-.34,1.345s.114.95.34,1.344c.225.396.539.705.941.928.403.222.857.334,1.367.334.783,0,1.443-.294,1.979-.88l.889.848c-.346.402-.77.709-1.276.921-.504.212-1.06.318-1.666.318-.75,0-1.425-.163-2.027-.493Z"/>
        <path class="cls-1" d="M338.186,78.894v1.155h-5.559v-7.411h5.41v1.153h-4.034v1.927h3.581v1.134h-3.581v2.042h4.183Z"/>
        <path class="cls-1" d="M346.517,72.638v7.411h-1.132l-4.086-5.02v5.02h-1.367v-7.411h1.133l4.088,5.018v-5.018h1.365Z"/>
        <path class="cls-1" d="M350.224,73.802h-2.457v-1.164h6.29v1.164h-2.457v6.248h-1.376v-6.248Z"/>
        <path class="cls-1" d="M360.158,80.049l-1.514-2.171c-.065.007-.16.011-.286.011h-1.674v2.16h-1.376v-7.411h3.05c.642,0,1.202.106,1.677.318.476.21.843.516,1.095.91.255.395.382.864.382,1.408,0,.558-.136,1.038-.408,1.442-.272.402-.662.701-1.17.9l1.706,2.435h-1.482ZM359.659,74.183c-.311-.255-.766-.382-1.365-.382h-1.611v2.954h1.611c.599,0,1.054-.128,1.365-.385.31-.258.467-.623.467-1.097s-.156-.835-.467-1.09Z"/>
        <path class="cls-1" d="M368.817,78.894v1.155h-5.559v-7.411h5.41v1.153h-4.034v1.927h3.581v1.134h-3.581v2.042h4.183Z"/>
        <path class="cls-1" d="M375.075,73.791v2.256h3.581v1.164h-3.581v2.838h-1.376v-7.411h5.41v1.153h-4.034Z"/>
        <path class="cls-1" d="M381.989,79.662c-.606-.327-1.084-.783-1.431-1.365-.346-.583-.516-1.233-.516-1.954s.171-1.371.516-1.953c.346-.583.824-1.038,1.431-1.365.606-.329,1.289-.493,2.044-.493s1.436.164,2.044.493c.606.327,1.083.781,1.428,1.36.346.578.519,1.231.519,1.959s-.173,1.38-.519,1.96c-.346.578-.822,1.032-1.428,1.36-.608.329-1.289.493-2.044.493s-1.437-.163-2.044-.493ZM385.366,78.615c.396-.223.707-.533.931-.931.227-.4.338-.847.338-1.341s-.111-.94-.338-1.34c-.225-.398-.535-.708-.931-.932-.394-.221-.841-.333-1.334-.333s-.939.112-1.333.333c-.396.224-.707.534-.932.932-.227.4-.34.846-.34,1.34s.114.941.34,1.341c.225.398.536.708.932.931.394.222.839.334,1.333.334s.94-.112,1.334-.334Z"/>
        <path class="cls-1" d="M394.548,80.049l-1.514-2.171c-.065.007-.16.011-.286.011h-1.674v2.16h-1.376v-7.411h3.05c.642,0,1.202.106,1.677.318.476.21.843.516,1.095.91.255.395.382.864.382,1.408,0,.558-.136,1.038-.408,1.442-.272.402-.662.701-1.17.9l1.706,2.435h-1.482ZM394.05,74.183c-.311-.255-.767-.382-1.365-.382h-1.611v2.954h1.611c.598,0,1.054-.128,1.365-.385.31-.258.467-.623.467-1.097s-.156-.835-.467-1.09Z"/>
        <path class="cls-1" d="M400.784,72.638h1.377v7.411h-1.377v-7.411Z"/>
        <path class="cls-1" d="M410.959,72.638v7.411h-1.132l-4.086-5.02v5.02h-1.367v-7.411h1.133l4.087,5.018v-5.018h1.365Z"/>
        <path class="cls-1" d="M414.666,73.802h-2.457v-1.164h6.29v1.164h-2.457v6.248h-1.376v-6.248Z"/>
        <path class="cls-1" d="M425.307,78.894v1.155h-5.559v-7.411h5.41v1.153h-4.034v1.927h3.58v1.134h-3.58v2.042h4.183Z"/>
        <path class="cls-1" d="M432.084,76.259h1.302v2.953c-.382.303-.826.538-1.335.699-.508.162-1.03.244-1.566.244-.755,0-1.438-.163-2.044-.493-.606-.327-1.084-.781-1.431-1.36-.346-.58-.517-1.233-.517-1.96s.171-1.38.517-1.959c.346-.578.826-1.032,1.436-1.36.61-.329,1.296-.493,2.059-.493.621,0,1.186.103,1.694.307.507.204.936.504,1.281.9l-.868.846c-.566-.563-1.247-.846-2.044-.846-.522,0-.986.11-1.391.327-.408.219-.724.526-.954.923-.228.394-.344.846-.344,1.354,0,.494.115.939.344,1.335.231.394.547.705.954.932.405.225.866.339,1.382.339.578,0,1.086-.127,1.525-.382v-2.308Z"/>
        <path class="cls-1" d="M440.258,80.049l-1.514-2.171c-.063.007-.16.011-.286.011h-1.674v2.16h-1.376v-7.411h3.05c.64,0,1.202.106,1.677.318.476.21.844.516,1.098.91.253.395.379.864.379,1.408,0,.558-.134,1.038-.409,1.442-.268.402-.662.701-1.168.9l1.703,2.435h-1.48ZM439.76,74.183c-.312-.255-.766-.382-1.365-.382h-1.611v2.954h1.611c.599,0,1.053-.128,1.365-.385.312-.258.468-.623.468-1.097s-.156-.835-.468-1.09Z"/>
        <path class="cls-1" d="M448.166,78.334h-3.705l-.729,1.715h-1.421l3.336-7.411h1.358l3.341,7.411h-1.436l-.744-1.715ZM447.712,77.254l-1.399-3.24-1.383,3.24h2.782Z"/>
        <path class="cls-1" d="M452.637,73.802h-2.459v-1.164h6.29v1.164h-2.455v6.248h-1.376v-6.248Z"/>
        <path class="cls-1" d="M463.275,78.894v1.155h-5.557v-7.411h5.409v1.153h-4.032v1.927h3.578v1.134h-3.578v2.042h4.181Z"/>
        <path class="cls-1" d="M465.027,72.638h3.24c.789,0,1.491.152,2.106.459.614.307,1.09.742,1.428,1.304.342.56.51,1.209.51,1.942s-.168,1.381-.51,1.943c-.338.561-.815.994-1.428,1.302-.614.307-1.316.461-2.106.461h-3.24v-7.411ZM468.204,78.884c.543,0,1.019-.104,1.432-.312.412-.208.732-.506.952-.889.223-.385.335-.832.335-1.341s-.112-.954-.335-1.34c-.22-.385-.539-.68-.952-.889-.413-.208-.889-.313-1.432-.313h-1.8v5.083h1.8Z"/>
        <path class="cls-1" d="M483.34,76.866c.241.315.36.705.36,1.17,0,.644-.245,1.138-.74,1.488-.495.349-1.216.524-2.161.524h-3.683v-7.411h3.471c.878,0,1.551.171,2.024.513.472.342.71.813.71,1.414,0,.366-.086.692-.256.974-.168.282-.402.5-.696.656.409.134.733.357.971.671ZM478.493,73.716v2.044h1.946c.48,0,.852-.086,1.108-.258.257-.173.387-.426.387-.758,0-.338-.13-.595-.387-.768-.256-.173-.628-.26-1.108-.26h-1.946ZM482.313,77.899c0-.712-.532-1.069-1.6-1.069h-2.221v2.138h2.221c1.067,0,1.6-.355,1.6-1.069Z"/>
        <path class="cls-1" d="M486.177,79.292c-.573-.575-.855-1.399-.855-2.472v-4.183h1.376v4.129c0,1.454.625,2.182,1.883,2.182,1.25,0,1.875-.728,1.875-2.182v-4.129h1.354v4.183c0,1.073-.283,1.897-.852,2.472-.565.575-1.361.863-2.388.863s-1.819-.288-2.392-.863Z"/>
        <path class="cls-1" d="M493.952,72.638h1.377v7.411h-1.377v-7.411Z"/>
        <path class="cls-1" d="M497.541,72.638h1.376v6.247h3.876v1.165h-5.252v-7.411Z"/>
        <path class="cls-1" d="M504.096,72.638h3.24c.789,0,1.491.152,2.106.459.614.307,1.09.742,1.428,1.304.343.56.51,1.209.51,1.942s-.167,1.381-.51,1.943c-.338.561-.814.994-1.428,1.302-.614.307-1.317.461-2.106.461h-3.24v-7.411ZM507.272,78.884c.543,0,1.019-.104,1.432-.312.413-.208.733-.506.953-.889.223-.385.335-.832.335-1.341s-.112-.954-.335-1.34c-.22-.385-.539-.68-.953-.889-.412-.208-.889-.313-1.432-.313h-1.801v5.083h1.801Z"/>
        <path class="cls-1" d="M513.056,72.638h1.376v7.411h-1.376v-7.411Z"/>
        <path class="cls-1" d="M523.229,72.638v7.411h-1.131l-4.088-5.02v5.02h-1.365v-7.411h1.131l4.088,5.018v-5.018h1.365Z"/>
        <path class="cls-1" d="M530.49,76.259h1.302v2.953c-.379.303-.826.538-1.332.699-.51.162-1.03.244-1.57.244-.755,0-1.436-.163-2.042-.493-.606-.327-1.083-.781-1.429-1.36-.345-.58-.521-1.233-.521-1.96s.176-1.38.521-1.959c.346-.578.823-1.032,1.432-1.36.614-.329,1.298-.493,2.061-.493.621,0,1.186.103,1.696.307.506.204.934.504,1.28.9l-.867.846c-.566-.563-1.246-.846-2.046-.846-.521,0-.985.11-1.391.327-.405.219-.725.526-.952.923-.231.394-.346.846-.346,1.354,0,.494.115.939.346,1.335.227.394.547.705.952.932.406.225.867.339,1.38.339.58,0,1.09-.127,1.525-.382v-2.308Z"/>
        <path class="cls-1" d="M542.509,78.894v1.155h-5.557v-7.411h5.409v1.153h-4.032v1.927h3.578v1.134h-3.578v2.042h4.181Z"/>
        <path class="cls-1" d="M550.841,72.638v7.411h-1.131l-4.088-5.02v5.02h-1.366v-7.411h1.131l4.088,5.018v-5.018h1.365Z"/>
        <path class="cls-1" d="M558.604,78.894v1.155h-5.557v-7.411h5.409v1.153h-4.033v1.927h3.579v1.134h-3.579v2.042h4.181Z"/>
        <path class="cls-1" d="M565.199,80.049l-1.513-2.171c-.063.007-.156.011-.287.011h-1.67v2.16h-1.376v-7.411h3.046c.644,0,1.205.106,1.682.318.476.21.84.516,1.094.91.257.395.383.864.383,1.408,0,.558-.137,1.038-.409,1.442-.272.402-.662.701-1.168.9l1.703,2.435h-1.485ZM564.705,74.183c-.313-.255-.767-.382-1.369-.382h-1.607v2.954h1.607c.603,0,1.056-.128,1.369-.385.309-.258.465-.623.465-1.097s-.156-.835-.465-1.09Z"/>
        <path class="cls-1" d="M573.364,76.259h1.302v2.953c-.38.303-.826.538-1.332.699-.51.162-1.03.244-1.57.244-.755,0-1.436-.163-2.042-.493-.606-.327-1.083-.781-1.428-1.36-.346-.58-.521-1.233-.521-1.96s.174-1.38.521-1.959c.346-.578.822-1.032,1.432-1.36.614-.329,1.298-.493,2.061-.493.621,0,1.186.103,1.696.307.505.204.934.504,1.279.9l-.867.846c-.565-.563-1.246-.846-2.045-.846-.521,0-.986.11-1.391.327-.406.219-.725.526-.953.923-.231.394-.346.846-.346,1.354,0,.494.115.939.346,1.335.227.394.547.705.953.932.405.225.866.339,1.38.339.58,0,1.09-.127,1.525-.382v-2.308Z"/>
        <path class="cls-1" d="M579.885,77.434v2.615h-1.377v-2.595l-2.912-4.817h1.473l2.172,3.61,2.191-3.61h1.354l-2.901,4.796Z"/>
      </g>
      <g>
        <path class="cls-1" d="M330.043,94.766h-3.707l-.731,1.715h-1.417l3.335-7.411h1.356l3.346,7.411h-1.442l-.74-1.715ZM329.587,93.686l-1.397-3.24-1.388,3.24h2.784Z"/>
        <path class="cls-1" d="M339.964,89.069v7.411h-1.133l-4.086-5.02v5.02h-1.367v-7.411h1.132l4.088,5.018v-5.018h1.366Z"/>
        <path class="cls-1" d="M342.165,89.069h3.24c.79,0,1.493.152,2.107.459.614.307,1.092.742,1.43,1.304.338.56.508,1.209.508,1.942s-.169,1.381-.508,1.943c-.338.561-.816.995-1.43,1.302s-1.316.461-2.107.461h-3.24v-7.411ZM345.343,95.317c.543,0,1.022-.104,1.436-.313.412-.208.729-.506.952-.889.223-.385.333-.831.333-1.341s-.11-.954-.333-1.34-.539-.68-.952-.889c-.413-.208-.892-.312-1.436-.312h-1.801v5.083h1.801Z"/>
        <path class="cls-1" d="M354.9,96.343c-.533-.162-.956-.378-1.267-.646l.476-1.069c.305.24.677.435,1.118.587.441.151.883.227,1.33.227.55,0,.962-.087,1.233-.264s.407-.409.407-.699c0-.212-.076-.387-.227-.525-.152-.137-.344-.245-.578-.321-.233-.078-.551-.167-.953-.266-.566-.134-1.021-.268-1.371-.402-.35-.134-.651-.344-.9-.631-.251-.286-.375-.671-.375-1.159,0-.409.109-.783.333-1.118.223-.335.558-.601,1.006-.8.448-.197.997-.295,1.646-.295.452,0,.897.056,1.335.169.437.114.815.275,1.133.487l-.435,1.069c-.324-.191-.664-.334-1.016-.435-.353-.098-.696-.147-1.028-.147-.543,0-.946.092-1.211.275-.266.183-.398.426-.398.731,0,.211.076.383.227.518.152.135.346.242.578.318.233.078.551.168.953.266.55.126,1.002.259,1.356.396.354.138.655.347.906.631.249.282.375.664.375,1.144,0,.409-.112.779-.335,1.112-.221.331-.558.595-1.01.794-.452.197-1.003.296-1.652.296-.573,0-1.125-.082-1.657-.244Z"/>
        <path class="cls-1" d="M361.924,95.724c-.57-.575-.857-1.398-.857-2.472v-4.183h1.377v4.129c0,1.454.629,2.182,1.886,2.182,1.248,0,1.873-.727,1.873-2.182v-4.129h1.356v4.183c0,1.073-.285,1.897-.852,2.472-.569.575-1.364.863-2.387.863s-1.821-.289-2.394-.863Z"/>
        <path class="cls-1" d="M370.339,96.343c-.534-.162-.956-.378-1.267-.646l.476-1.069c.306.24.677.435,1.118.587.44.151.883.227,1.329.227.551,0,.962-.087,1.233-.264s.408-.409.408-.699c0-.212-.077-.387-.227-.525-.152-.137-.344-.245-.578-.321-.233-.078-.55-.167-.952-.266-.566-.134-1.021-.268-1.371-.402-.349-.134-.651-.344-.9-.631-.251-.286-.375-.671-.375-1.159,0-.409.11-.783.333-1.118.224-.335.558-.601,1.006-.8.448-.197.997-.295,1.646-.295.452,0,.897.056,1.335.169.437.114.815.275,1.132.487l-.435,1.069c-.324-.191-.664-.334-1.016-.435-.353-.098-.696-.147-1.028-.147-.543,0-.947.092-1.211.275-.265.183-.398.426-.398.731,0,.211.077.383.227.518.152.135.346.242.578.318.232.078.55.168.953.266.55.126,1.002.259,1.355.396.354.138.655.347.906.631.25.282.375.664.375,1.144,0,.409-.111.779-.334,1.112-.222.331-.558.595-1.01.794-.452.197-1.002.296-1.652.296-.573,0-1.125-.082-1.657-.244Z"/>
        <path class="cls-1" d="M377.968,90.234h-2.457v-1.165h6.289v1.165h-2.457v6.247h-1.376v-6.247Z"/>
        <path class="cls-1" d="M387.486,94.766h-3.706l-.731,1.715h-1.417l3.335-7.411h1.356l3.346,7.411h-1.442l-.741-1.715ZM387.031,93.686l-1.397-3.24-1.388,3.24h2.784Z"/>
        <path class="cls-1" d="M390.821,89.069h1.377v7.411h-1.377v-7.411Z"/>
        <path class="cls-1" d="M400.994,89.069v7.411h-1.132l-4.087-5.02v5.02h-1.367v-7.411h1.133l4.088,5.018v-5.018h1.365Z"/>
        <path class="cls-1" d="M408.006,94.766h-3.707l-.731,1.715h-1.417l3.335-7.411h1.356l3.346,7.411h-1.442l-.74-1.715ZM407.551,93.686l-1.397-3.24-1.388,3.24h2.784Z"/>
        <path class="cls-1" d="M417.568,93.299c.24.314.359.705.359,1.169,0,.644-.247,1.138-.74,1.488-.495.349-1.215.524-2.161.524h-3.684v-7.411h3.474c.874,0,1.549.171,2.022.513s.708.813.708,1.414c0,.366-.083.692-.253.974s-.403.5-.699.657c.409.134.734.357.974.671ZM412.717,90.148v2.044h1.949c.48,0,.848-.086,1.107-.258.256-.173.387-.426.387-.757,0-.339-.131-.595-.387-.768-.259-.173-.627-.26-1.107-.26h-1.949ZM416.541,94.331c0-.712-.533-1.069-1.599-1.069h-2.225v2.139h2.225c1.066,0,1.599-.355,1.599-1.07Z"/>
        <path class="cls-1" d="M419.61,89.069h1.376v7.411h-1.376v-7.411Z"/>
        <path class="cls-1" d="M423.199,89.069h1.377v6.248h3.876v1.164h-5.252v-7.411Z"/>
        <path class="cls-1" d="M429.753,89.069h1.376v7.411h-1.376v-7.411Z"/>
        <path class="cls-1" d="M434.848,90.234h-2.457v-1.165h6.288v1.165h-2.455v6.247h-1.376v-6.247Z"/>
        <path class="cls-1" d="M443.024,93.866v2.615h-1.38v-2.595l-2.912-4.817h1.473l2.172,3.61,2.191-3.61h1.354l-2.898,4.797Z"/>
        <path class="cls-1" d="M450.169,89.069h1.376v7.411h-1.376v-7.411Z"/>
        <path class="cls-1" d="M460.342,89.069v7.411h-1.131l-4.088-5.02v5.02h-1.366v-7.411h1.131l4.088,5.018v-5.018h1.365Z"/>
        <path class="cls-1" d="M467.183,90.234h-2.459v-1.165h6.29v1.165h-2.455v6.247h-1.377v-6.247Z"/>
        <path class="cls-1" d="M478.852,89.069v7.411h-1.377v-3.177h-3.831v3.177h-1.376v-7.411h1.376v3.059h3.831v-3.059h1.377Z"/>
        <path class="cls-1" d="M486.615,95.326v1.155h-5.557v-7.411h5.409v1.153h-4.032v1.927h3.578v1.135h-3.578v2.042h4.181Z"/>
        <path class="cls-1" d="M492.998,90.234h-2.459v-1.165h6.29v1.165h-2.455v6.247h-1.376v-6.247Z"/>
        <path class="cls-1" d="M502.929,96.481l-1.514-2.171c-.063.008-.156.012-.286.012h-1.671v2.159h-1.376v-7.411h3.047c.643,0,1.205.106,1.681.318.476.21.841.515,1.094.909.256.396.383.865.383,1.408,0,.558-.138,1.038-.409,1.442-.272.402-.662.701-1.168.9l1.703,2.434h-1.484ZM502.435,90.615c-.312-.255-.766-.381-1.369-.381h-1.607v2.953h1.607c.603,0,1.056-.128,1.369-.385.309-.258.465-.623.465-1.097s-.156-.835-.465-1.09Z"/>
        <path class="cls-1" d="M507.453,96.094c-.607-.327-1.083-.782-1.429-1.365-.346-.582-.521-1.233-.521-1.954s.175-1.371.521-1.953c.346-.582.822-1.038,1.429-1.365.606-.329,1.287-.493,2.042-.493s1.44.163,2.046.493c.606.327,1.083.781,1.428,1.36.346.578.521,1.231.521,1.959s-.174,1.38-.521,1.96c-.346.578-.822,1.032-1.428,1.359-.606.329-1.291.493-2.046.493s-1.436-.164-2.042-.493ZM510.83,95.047c.394-.224.707-.534.934-.932.224-.4.338-.846.338-1.341s-.115-.94-.338-1.34c-.227-.398-.539-.708-.934-.931-.394-.222-.841-.334-1.335-.334-.491,0-.937.112-1.332.334-.398.223-.707.533-.934.931-.227.4-.338.846-.338,1.34s.112.941.338,1.341c.227.398.536.708.934.932.394.221.841.333,1.332.333.495,0,.941-.112,1.335-.333Z"/>
        <path class="cls-1" d="M519.891,89.388c.476.21.841.515,1.094.909.256.396.383.865.383,1.408,0,.538-.127,1.004-.383,1.405-.253.398-.618.703-1.094.915-.476.212-1.038.318-1.681.318h-1.671v2.139h-1.376v-7.411h3.047c.643,0,1.205.106,1.681.318ZM519.515,92.796c.309-.255.465-.617.465-1.092s-.157-.835-.465-1.09c-.312-.255-.766-.381-1.369-.381h-1.607v2.944h1.607c.603,0,1.056-.128,1.369-.382Z"/>
        <path class="cls-1" d="M522.956,89.069h1.377v7.411h-1.377v-7.411Z"/>
        <path class="cls-1" d="M527.948,96.094c-.603-.327-1.078-.781-1.421-1.359-.342-.581-.513-1.234-.513-1.96s.175-1.38.521-1.959c.346-.578.818-1.032,1.425-1.36.603-.329,1.279-.493,2.027-.493.606,0,1.16.106,1.662.318.499.21.923.519,1.268.921l-.889.837c-.535-.578-1.197-.869-1.979-.869-.51,0-.963.112-1.365.334-.406.223-.718.532-.945.926-.227.396-.338.844-.338,1.345s.112.95.338,1.344c.227.396.539.705.945.928.402.221.855.333,1.365.333.781,0,1.443-.294,1.979-.88l.889.848c-.346.402-.77.708-1.275.92-.503.212-1.06.318-1.667.318-.747,0-1.425-.164-2.027-.493Z"/>
        <path class="cls-1" d="M535.053,96.343c-.536-.162-.956-.378-1.265-.646l.476-1.069c.301.24.673.435,1.116.587.442.151.885.227,1.328.227.55,0,.963-.087,1.235-.264s.409-.409.409-.699c0-.212-.078-.387-.23-.525-.152-.137-.343-.245-.577-.321-.23-.078-.55-.167-.952-.266-.566-.134-1.023-.268-1.372-.402-.35-.134-.648-.344-.9-.631-.249-.286-.376-.671-.376-1.159,0-.409.112-.783.335-1.118.224-.335.558-.601,1.005-.8.45-.197.997-.295,1.648-.295.454,0,.897.056,1.335.169.436.114.815.275,1.131.487l-.431,1.069c-.327-.191-.666-.334-1.019-.435-.354-.098-.696-.147-1.027-.147-.543,0-.949.092-1.213.275-.264.183-.394.426-.394.731,0,.211.074.383.227.518.152.135.342.242.577.318.234.078.55.168.953.266.55.126,1.004.259,1.354.396.353.138.654.347.908.631.249.282.375.664.375,1.144,0,.409-.112.779-.335,1.112-.223.331-.558.595-1.012.794-.45.197-1.001.296-1.651.296-.569,0-1.123-.082-1.655-.244Z"/>
      </g>
    </g>
  </g>
  <g>
    <polygon class="cls-2" points="87.905 59.026 89.902 59.026 94.423 67.278 94.454 67.278 94.454 59.026 95.922 59.026 95.922 69.276 94.043 69.276 89.402 60.85 89.374 60.85 89.374 69.276 87.905 69.276 87.905 59.026 87.905 59.026"/>
    <path class="cls-2" d="M102.837,66.371c0,1.115-.72,1.966-2.086,1.966-.629,0-1.395-.426-1.395-1.218,0-1.321,1.851-1.44,2.602-1.44.292,0,.584.029.879.029v.662h0ZM98.813,63.491c.557-.469,1.395-.761,2.173-.761,1.381,0,1.851.66,1.851,1.953-.543-.029-.925-.029-1.469-.029-1.423,0-3.479.585-3.479,2.466,0,1.628,1.131,2.335,2.746,2.335,1.262,0,1.996-.693,2.32-1.147h.028v.969h1.294c-.03-.221-.06-.617-.06-1.469v-3.096c0-2.04-.866-3.099-3.01-3.099-.955,0-1.776.292-2.466.706l.072,1.173h0Z"/>
    <path class="cls-2" d="M110.531,62.903h-1.983v4.096c0,.868.53,1.337,1.161,1.337.427,0,.735-.133.94-.265v1.175c-.309.088-.733.206-1.174.206-1.425,0-2.305-.676-2.305-2.176v-4.375h-1.689v-1.115h1.689v-1.735l1.379-.438v2.173h1.983v1.115h0Z"/>
    <path class="cls-2" d="M112.44,69.276h1.381v-7.488h-1.381v7.488h0ZM113.909,58.558h-1.558v1.556h1.558v-1.556h0Z"/>
    <path class="cls-2" d="M117.313,65.533c0-1.424.867-2.803,2.35-2.803,1.468,0,2.335,1.38,2.335,2.803,0,1.337-.719,2.805-2.335,2.805-1.629,0-2.35-1.468-2.35-2.805h0ZM115.846,65.533c0,2.141,1.556,3.921,3.817,3.921,2.246,0,3.803-1.78,3.803-3.921,0-2.276-1.526-3.921-3.803-3.921-2.29,0-3.817,1.644-3.817,3.921h0Z"/>
    <path class="cls-2" d="M125.318,61.788h1.335v1.189h.028c.411-.852,1.411-1.366,2.452-1.366,1.938,0,2.806,1.205,2.806,3.216v4.448h-1.382v-3.875c0-1.748-.379-2.6-1.585-2.672-1.571,0-2.276,1.261-2.276,3.082v3.465h-1.378v-7.488h0Z"/>
    <path class="cls-2" d="M138.736,66.371c0,1.115-.719,1.966-2.084,1.966-.632,0-1.396-.426-1.396-1.218,0-1.321,1.849-1.44,2.6-1.44.292,0,.587.029.88.029v.662h0ZM134.712,63.491c.559-.469,1.396-.761,2.172-.761,1.381,0,1.852.66,1.852,1.953-.543-.029-.925-.029-1.469-.029-1.423,0-3.479.585-3.479,2.466,0,1.628,1.13,2.335,2.745,2.335,1.263,0,1.997-.693,2.321-1.147h.028v.969h1.293c-.029-.221-.06-.617-.06-1.469v-3.096c0-2.04-.866-3.099-3.011-3.099-.951,0-1.774.292-2.464.706l.071,1.173h0Z"/>
    <polygon class="cls-2" points="142.628 58.263 144.007 58.263 144.007 69.276 142.628 69.276 142.628 58.263 142.628 58.263"/>
    <path class="cls-2" d="M158.31,65.033c0,2.878-1.453,4.421-3.978,4.421s-3.979-1.543-3.979-4.421v-6.007h1.469v5.816c0,1.968.615,3.317,2.51,3.317s2.509-1.349,2.509-3.317v-5.816h1.469v6.007h0Z"/>
    <path class="cls-2" d="M160.808,61.788h1.336v1.189h.029c.412-.852,1.412-1.366,2.451-1.366,1.939,0,2.807,1.205,2.807,3.216v4.448h-1.381v-3.875c0-1.748-.382-2.6-1.587-2.672-1.571,0-2.277,1.261-2.277,3.082v3.465h-1.378v-7.488h0Z"/>
    <path class="cls-2" d="M169.954,61.788h1.381v7.488h-1.381v-7.488h0ZM171.423,60.114h-1.556v-1.556h1.556v1.556h0Z"/>
    <polygon class="cls-2" points="177.178 69.276 175.535 69.276 172.848 61.788 174.359 61.788 176.387 67.897 176.415 67.897 178.485 61.788 179.866 61.788 177.178 69.276 177.178 69.276"/>
    <path class="cls-2" d="M182.171,64.813c.103-.969.66-2.083,2.012-2.083,1.187,0,1.863.94,1.863,2.083h-3.875ZM186.942,67.589c-.337.279-1.393.748-2.304.748-1.305,0-2.467-1.015-2.467-2.497h5.345c0-2.407-.809-4.229-3.304-4.229-2.114,0-3.51,1.571-3.51,3.79,0,2.435,1.219,4.052,3.877,4.052,1.234,0,1.836-.297,2.364-.486v-1.38h0Z"/>
    <path class="cls-2" d="M189.366,61.788h1.292v1.159h.031c.365-.779,1.159-1.336,1.951-1.336.41,0,.616.044.911.104v1.231c-.25-.103-.53-.131-.764-.131-1.234,0-2.041,1.174-2.041,3.055v3.405h-1.38v-7.488h0Z"/>
    <path class="cls-2" d="M194.521,67.807c.541.353,1.32.53,1.715.53.632,0,1.411-.265,1.411-1.072,0-1.365-3.247-1.249-3.247-3.349,0-1.556,1.161-2.305,2.645-2.305.647,0,1.174.133,1.719.292l-.119,1.207c-.308-.193-1.13-.381-1.453-.381-.704,0-1.32.292-1.32.911,0,1.525,3.244,1.086,3.244,3.479,0,1.599-1.279,2.335-2.615,2.335-.704,0-1.424-.074-2.056-.412l.076-1.235h0Z"/>
    <path class="cls-2" d="M200.963,61.788h1.382v7.488h-1.382v-7.488h0ZM202.433,60.114h-1.556v-1.556h1.556v1.556h0Z"/>
    <path class="cls-2" d="M208.849,62.903h-1.98v4.096c0,.868.526,1.337,1.158,1.337.428,0,.735-.133.94-.265v1.175c-.308.088-.734.206-1.173.206-1.425,0-2.306-.676-2.306-2.176v-4.375h-1.689v-1.115h1.689v-1.735l1.381-.438v2.173h1.98v1.115h0Z"/>
    <path class="cls-2" d="M210.025,71.302c.175.061.409.119.644.119,1.233,0,1.644-1.705,1.644-1.851,0-.161-.175-.543-.264-.792l-2.54-6.989h1.512l2.012,6.198h.028l2.058-6.198h1.396l-2.761,7.649c-.514,1.438-1.059,3.098-2.877,3.098-.443,0-.693-.059-.94-.103l.088-1.131h0Z"/>
    <path class="cls-2" d="M88.756,82.885c0-1.423.866-2.803,2.35-2.803,1.468,0,2.335,1.381,2.335,2.803,0,1.335-.72,2.806-2.335,2.806-1.631,0-2.35-1.471-2.35-2.806h0ZM87.288,82.885c0,2.144,1.556,3.922,3.818,3.922,2.245,0,3.803-1.778,3.803-3.922,0-2.276-1.528-3.922-3.803-3.922-2.289,0-3.818,1.646-3.818,3.922h0Z"/>
    <path class="cls-2" d="M97.652,80.257h-1.762v-1.116h1.762v-.693c0-1.818.473-3.008,2.513-3.008.353,0,.646.043.923.087l-.056,1.116c-.162-.059-.428-.086-.662-.086-1.188,0-1.336.762-1.336,1.775v.808h1.983v1.116h-1.983v6.37h-1.381v-6.37h0Z"/>
    <path class="cls-2" d="M110.929,77.922c-.748-.292-1.16-.427-1.922-.427-.824,0-1.793.296-1.793,1.367,0,1.97,4.406,1.511,4.406,4.89,0,2.186-1.688,3.054-3.744,3.054-.718,0-1.425-.208-2.098-.428l.145-1.363c.498.204,1.381.497,2.13.497.836,0,2.011-.469,2.011-1.675,0-2.289-4.405-1.656-4.405-4.843,0-1.824,1.439-2.791,3.292-2.791.675,0,1.481.117,2.186.365l-.206,1.353h0Z"/>
    <path class="cls-2" d="M113.66,79.142h1.381v7.485h-1.381v-7.485h0ZM115.129,77.466h-1.556v-1.554h1.556v1.554h0Z"/>
    <path class="cls-2" d="M117.567,79.142h1.337v1.188h.028c.412-.852,1.41-1.367,2.451-1.367,1.939,0,2.806,1.206,2.806,3.219v4.445h-1.381v-3.875c0-1.747-.381-2.598-1.586-2.67-1.57,0-2.276,1.263-2.276,3.082v3.464h-1.38v-7.485h0Z"/>
    <path class="cls-2" d="M129.593,85.513c-1.294,0-2.085-1.234-2.085-2.644,0-1.276.692-2.788,2.085-2.788,1.468,0,2.186,1.335,2.186,2.892,0,1.395-.894,2.539-2.186,2.539h0ZM133.162,79.142h-1.28v1.116h-.028c-.411-.807-1.144-1.294-2.467-1.294-2.261,0-3.347,2.058-3.347,3.982,0,1.936,1.055,3.682,3.198,3.682.956,0,1.927-.38,2.513-1.158h.027v.734c0,1.586-.866,2.569-2.32,2.569-1.013,0-1.643-.19-2.701-.673l-.148,1.277c1.205.41,1.895.513,2.687.513,2.688,0,3.864-1.306,3.864-3.584v-7.163h0Z"/>
    <path class="cls-2" d="M139.957,83.721c0,1.116-.718,1.97-2.085,1.97-.632,0-1.394-.428-1.394-1.221,0-1.318,1.851-1.437,2.599-1.437.294,0,.587.03.88.03v.659h0ZM135.937,80.843c.556-.47,1.393-.761,2.172-.761,1.379,0,1.849.66,1.849,1.952-.541-.03-.924-.03-1.468-.03-1.424,0-3.479.589-3.479,2.466,0,1.631,1.129,2.337,2.745,2.337,1.261,0,1.997-.692,2.321-1.148h.029v.968h1.29c-.027-.218-.056-.612-.056-1.467v-3.097c0-2.042-.869-3.1-3.011-3.1-.953,0-1.776.295-2.467.709l.075,1.171h0Z"/>
    <path class="cls-2" d="M149.326,82.855c.029,1.176-.587,2.836-2.071,2.836-1.555,0-2.202-1.543-2.202-2.791,0-1.393.72-2.818,2.217-2.818s2.086,1.425,2.057,2.773h0ZM143.673,89.712h1.38v-4.111h.03c.426.691,1.174,1.206,2.496,1.206,2.261,0,3.216-1.998,3.216-4.055,0-2.011-1.057-3.789-3.23-3.789-1.322,0-2.174.679-2.541,1.236h-.027v-1.057h-1.323v10.571h0Z"/>
    <path class="cls-2" d="M153.613,82.885c0-1.423.867-2.803,2.35-2.803,1.468,0,2.334,1.381,2.334,2.803,0,1.335-.719,2.806-2.334,2.806-1.63,0-2.35-1.471-2.35-2.806h0ZM152.145,82.885c0,2.144,1.556,3.922,3.817,3.922,2.245,0,3.802-1.778,3.802-3.922,0-2.276-1.526-3.922-3.802-3.922-2.292,0-3.817,1.646-3.817,3.922h0Z"/>
    <path class="cls-2" d="M161.616,79.142h1.292v1.16h.028c.368-.78,1.161-1.338,1.954-1.338.409,0,.616.045.91.105v1.233c-.25-.103-.528-.133-.762-.133-1.233,0-2.042,1.176-2.042,3.054v3.404h-1.38v-7.485h0Z"/>
    <path class="cls-2" d="M168.295,82.165c.104-.967.661-2.083,2.013-2.083,1.189,0,1.864.939,1.864,2.083h-3.877ZM173.068,84.941c-.337.279-1.397.749-2.305.749-1.308,0-2.468-1.016-2.468-2.497h5.344c0-2.408-.805-4.231-3.302-4.231-2.113,0-3.51,1.573-3.51,3.789,0,2.437,1.219,4.055,3.877,4.055,1.234,0,1.836-.295,2.364-.486v-1.38h0Z"/>
    <path class="cls-2" d="M182.813,38.596c2.812,2.592,8.352,4.958,15.12,5.063,5.932.101,10.717-1.685,11.011-6.603.629-10.646-26.671-6.386-25.612-24.357.526-8.993,9.454-11.971,19.087-11.807,5.205.088,10.411,1.322,13.263,2.771l.012,6.386c-3.48-2.387-8.336-3.906-12.354-3.982-6.111-.112-10.962,1.013-11.039,5.48-.165,9.317,27.375,7.082,26.322,24.905-.59,10.036-10.344,13.114-20.553,12.927-5.872-.081-11.623-1.273-15.244-3.127l-.014-7.656h0Z"/>
    <path class="cls-2" d="M156.988,49.43c-12.681,0-19.983-5.696-19.983-17.412V2.277h9.508l.004,29.741c0,7.283,3.497,11.702,10.471,11.702s10.473-4.419,10.473-11.702l.004-29.741h9.502v29.741c0,11.716-7.3,17.412-19.978,17.412h0Z"/>
    <path class="cls-2" d="M121.562,2.277v33.503l-21.788-31.132c-1.032-1.437-2.735-2.371-4.632-2.371h-7.213v45.682h6.338V14.436l21.752,31.039c1.033,1.482,2.747,2.484,4.709,2.484h7.171V2.277h-6.336Z"/>
    <path class="cls-2" d="M77.016,49.748V2.477H.006v47.307c-.004.04-.006.163-.006.364C0,52.381.484,64.199,9.987,79.169c10.381,16.381,27.51,21.444,28.233,21.65l.259.074.258-.074c.726-.206,17.91-5.268,28.298-21.65,10.356-16.321,9.998-28.895,9.979-29.421h0Z"/>
    <path class="cls-3" d="M65.367,77.756c-9.33,14.716-24.817,20.083-26.968,20.77-2.145-.688-17.581-6.054-26.907-20.77h0C2.14,63.024,1.8,51.211,1.8,49.598c0-.115.002-.179.002-.187v-16.735h73.254v16.7c0,.011.004.076.004.196,0,1.654-.346,13.457-9.692,28.184h0Z"/>
    <path class="cls-4" d="M53.762,39.575l.016-.003h0s-.01.002-.016.003h0Z"/>
    <path class="cls-5" d="M36.076,7.917c-.132-.023-3.266-.576-7.009-.576-2.966,0-5.643.891-6.82,1.345-1.176-.455-3.854-1.345-6.819-1.345-3.742,0-6.877.552-7.009.576l-.421.075v19.936l.621-.136c.026-.006,2.619-.562,6.438-.562,2.87,0,5.845.799,7.017,1.222l.173.063.178-.063c1.171-.423,4.144-1.222,7.016-1.222,3.818,0,6.411.557,6.436.562l.621.136V7.993l-.421-.076h0Z"/>
    <path class="cls-3" d="M21.757,9.612c-1.186-.445-3.633-1.22-6.306-1.22-2.896,0-5.45.346-6.408.493v15.07c1.001-.171,3.157-.47,6.035-.47,2.58,0,5.16.589,6.678,1.058v-14.931h0Z"/>
    <path class="cls-3" d="M29.091,8.392c-2.708,0-5.185.795-6.353,1.238v14.929c1.51-.471,4.116-1.073,6.726-1.073,2.878,0,5.033.299,6.034.47v-15.07c-.957-.147-3.511-.493-6.407-.493h0Z"/>
    <path class="cls-2" d="M11.884,10.905c-.371.1-.575.439-.463.759.114.321.507.499.877.4.019-.006,1.933-.344,3.564-.344,1.48,0,3.14.672,3.158.68.361.117.765-.042.9-.356.136-.313-.048-.663-.409-.782-.081-.027-1.91-.753-3.649-.753-1.848,0-3.893.374-3.978.396h0Z"/>
    <path class="cls-2" d="M11.884,13.898c-.371.099-.575.44-.463.76.114.32.507.498.877.399.019-.003,1.933-.343,3.564-.343,1.48,0,3.14.673,3.158.679.361.117.765-.043.9-.356.136-.313-.048-.662-.409-.78-.081-.026-1.91-.755-3.649-.755-1.848,0-3.893.375-3.978.397h0Z"/>
    <path class="cls-2" d="M11.884,16.893c-.371.099-.575.44-.463.759.114.321.507.5.877.401.019-.005,1.933-.344,3.564-.344,1.48,0,3.14.672,3.158.677.361.119.765-.041.9-.354.136-.315-.048-.663-.409-.781-.081-.027-1.91-.757-3.649-.757-1.848,0-3.893.374-3.978.398h0Z"/>
    <path class="cls-2" d="M11.884,19.886c-.371.101-.575.441-.463.759.114.321.507.499.877.4.019-.005,1.933-.345,3.564-.345,1.48,0,3.14.676,3.158.68.361.118.765-.04.9-.354.136-.313-.048-.664-.409-.782-.081-.025-1.91-.756-3.649-.756-1.848,0-3.893.377-3.978.398h0Z"/>
    <path class="cls-2" d="M32.716,10.905c.368.1.574.439.461.759-.114.321-.506.499-.876.4-.019-.006-1.933-.344-3.565-.344-1.479,0-3.139.672-3.158.68-.36.117-.764-.042-.899-.356-.137-.313.047-.663.408-.782.081-.027,1.911-.753,3.649-.753,1.848,0,3.893.374,3.98.396h0Z"/>
    <path class="cls-2" d="M32.716,13.898c.368.099.574.44.461.76-.114.32-.506.498-.876.399-.019-.003-1.933-.343-3.565-.343-1.479,0-3.139.673-3.158.679-.36.117-.764-.043-.899-.356-.137-.313.047-.662.408-.78.081-.026,1.911-.755,3.649-.755,1.848,0,3.893.375,3.98.397h0Z"/>
    <path class="cls-2" d="M32.716,16.893c.368.099.574.44.461.759-.114.321-.506.5-.876.401-.019-.005-1.933-.344-3.565-.344-1.479,0-3.139.672-3.158.677-.36.119-.764-.041-.899-.354-.137-.315.047-.663.408-.781.081-.027,1.911-.757,3.649-.757,1.848,0,3.893.374,3.98.398h0Z"/>
    <path class="cls-2" d="M32.716,19.886c.368.101.574.441.461.759-.114.321-.506.499-.876.4-.019-.005-1.933-.345-3.565-.345-1.479,0-3.139.676-3.158.68-.36.118-.764-.04-.899-.354-.137-.313.047-.664.408-.782.081-.025,1.911-.756,3.649-.756,1.848,0,3.893.377,3.98.398h0Z"/>
    <path class="cls-2" d="M71.746,46.282c-.377-1.378-1.073-1.987-1.999-2.479-2.554-1.355-5.889-.406-8.814.591-2.207.752-2.873.979-5.374,1.362-1.889.29-8.208,1.108-10.205-.543-.287-.236-.574-.755-.604-1.089-.056-.69.256-1.511.495-1.772.505-.552,1.681-.82,3.598-.82l4.892.077c.307.393,1.089,1.027,3.076,1.452,3.161.674,6.636-.422,6.636-.422,0,0-.574-.115-1.053-.474-.422-.316-.387-.791-.387-.791,0,0,.697.337,1.711.305,1.264-.036,1.849-.637,3.029-.936,1.18-.3,2.494-.053,2.494-.053,0,0-1.192-1.273-2.374-1.499-1.177-.225-2.648.077-2.648.077,0,0,.369-.165.808-.562.352-.316.422-.86.422-.86,0,0-1.412.548-2.844.473-1.434-.075-1.328-.591-4.108-.667-2.108-.057-3.849,1.196-4.57,1.806-2.254-.147-4.029-.227-5.067-.227-2.865,0-4.52.469-5.531,1.569-.845.918-1.212,2.107-1.091,3.534.093,1.11.589,2.043,1.472,2.772,2.675,2.212,9.846,1.533,12.384,1.085,2.843-.502,3.692-.721,5.338-1.267l.094-.032c1.273-.425,5.149-1.721,6.774-.858.33.174.556.501.693,1.001.061.224.093.426.093.612,0,.336-.103.618-.312.874-1.479,1.809-7.046,2.117-9.463,2.247-.267-.063-1.883-.426-4.029-.438-1.435-.008-2.638.083-3.912.179-2.323.176-4.725.358-8.715-.098-1.851-.212-3.585-.55-4.891-.936-.061-.496-.294-.969-.789-1.524.957.309,2.201-.742,2.551-1.266-.005-.052-1.7-.501-1.801-1.602-.004-.034,1.201.1,1.701-1.551-1.202-.651-.824-.89-1.401-1.702-.509-.713-1.246-1.072-2.152-1.05.366-.047.399,0,.8-.202.521-.261.884-.979,1.402-.95-1.045-1.636-3.852-1.852-5.017-1.507.299-.372.758-.784.763-1.294-1.552.428-3.073-.379-4.637-.086-1.296.243-2.036.77-2.443,2.002h-.06c-.409-1.232-1.147-1.758-2.444-2.002-1.565-.293-3.086.513-4.639.086.008.51.466.921.763,1.294-1.162-.345-3.969-.129-5.015,1.507.518-.03.879.689,1.401.95.46.231.552.185.801.202-.905-.023-1.642.337-2.152,1.05-.579.811-.2,1.051-1.401,1.702.501,1.651,1.704,1.516,1.702,1.551-.101,1.101-1.798,1.55-1.802,1.602.35.524,1.594,1.576,2.552,1.266-.786.879-.917,1.552-.737,2.437-1.221-.925-2.426-1.948-3.066-2.795-.15-.218-.629-1.795-.947-2.839l-.259-.849s-.127-.451-.127-.451c-.382-1.406-.751-2.582-1.39-2.738-.352-.084-.663-.103-.945-.085-.221-.344-.527-.707-.887-.819-.74-.226-1.098-.064-1.098-.064,0,0,.599.43.801.873.051.114.084.221.104.319-.136.077-.256.159-.357.242l-.054.044c-.076.061-.179.146-.29.246-.05-.016-.102-.028-.153-.035-.769-.101-1.097.122-1.097.122,0,0,.418.204.727.489-.267.372-.488.849-.488,1.438,0,.058.006.119.012.18-.735.056-1.006.322-1.006.322,0,0,.713.192,1.059.533.038.038.071.076.102.114-.033.038-.059.066-.059.066-.148.233-.213.497-.213.77,0,.64.359,1.332.852,1.783,0,0,1.318,1.091,1.441,1.193.522,1.163,1.098,2.186,1.477,2.616.117.148.922,1.534,1.774,3.001.114.196.23.396.348.599.183.9.39,2.02.483,2.9.169,1.584.008,3.352.008,3.352,0,0,1.026-.051,1.491-.72.009-.017.378,1.098.324,2.352-.04.928-.288,2.215-.288,2.215,0,0,1-.53,1.753-1.196.378-.334.762-.887.994-1.25.827.528,3.195-.314,4.377-.79.231.47.547.989.983,1.577.172-.709.929-1.064,1.28-1.631.107,0,.214-.001.322-.002.043.776-.181,1.505.553,2.957.208.41,1.226,1.928,1.966,2.708-.28,1.313-.812,3.709-1.363,5.672-.63,2.245-1.14,3.358-1.432,3.878-.843.041-2.389.093-2.879.072-1.175-.056-2.045.19-2.585.731-.04.04-.072.081-.106.122-.41.057-.881.186-1.136.472-.511.579-.515.975-.515.975,0,0,.64-.369,1.126-.369.036,0,.069.003.103.005,0,.041,0,.076,0,.1.005.113.072.297.179.52-.079.058-.15.122-.207.196-.472.613-.446,1.008-.446,1.008,0,0,.6-.402,1.083-.442.151.24.321.488.498.729-.021.025-.042.049-.06.076-.425.648-.369,1.039-.369,1.039,0,0,.476-.373.925-.496.154.175.306.333.449.459.706.622,2.462.219,4.686-.373l1.38-.34c.973-.181,1.578-.57,2.024-1.3.106-.173.202-.457.352-.906l.131-.388c.306-.863.546-1.414,1.157-2.393.019-.03.615-.988,1.427-2.309.719-.598,1.586-1.294,2.216-1.719.962-.649,2.877-1.627,2.877-1.627,0,0-.512-.83-1.272-.943-.016-.003.971-1.004,1.796-1.361.931-.406,2.13-.626,2.13-.626,0,0-.436-.897-1.112-1.331.281-.092.539-.256.859-.467,1.617-1.054,2.81-1.018,3.934-.702.045-.729-.139-1.176-.772-1.598.533-.227,1.082-.419,1.665-.559.369.633.786,1.333.976,1.602.834,1.182,2.087,2.808,3.102,3.826.027.026.038.073.038.137,0,.426-.519,1.603-.815,2.276l-.255.58s-1.021,2.401-1.319,3.102c-.594.034-2.317.128-2.921.098-1.145-.054-1.993.185-2.52.711-.067.067-.125.136-.176.204-.426.076-.938.232-1.191.554-.478.61-.459,1.003-.459,1.003,0,0,.618-.404,1.102-.433.076-.005.146-.002.213.003.02.129.09.311.2.529-.114.081-.213.174-.283.282-.424.648-.368,1.037-.368,1.037,0,0,.579-.455,1.061-.526.018-.003.034-.003.052-.005.116.179.241.359.37.535-.046.046-.09.095-.125.148-.425.648-.37,1.041-.37,1.041,0,0,.555-.438,1.029-.521.148.17.293.321.426.437.677.597,2.122.242,4.09-.324l1.401-.366c.95-.177,1.541-.557,1.975-1.268,0,0,.371-.794.371-.794.173-.402.369-.858.521-1.095.228-.359.468-.792.711-1.258.33-.283.637-.54.853-.706.627-.481,2.222-1.359,2.222-1.359,0,0-.317-.699-.967-.764-.008-.001.632-.714,1.401-1.16.546-.317,1.629-.505,1.629-.505,0,0-.748-.632-1.314-.879-.228-.099-.529-.166-.81-.215-.036-.325-.206-.688-.518-1.168-.559-.864.259-2.722.846-3.774.295.417.825,1.109,1.709,2.091,0,0,2.838,3.105,3.466,3.793-.122.495-.521,2.043-1.15,3.752-.454,1.243-1.102,2.539-1.434,3.176-.683.038-2.233.118-2.799.092-1.145-.055-1.993.184-2.521.711-.089.089-.158.18-.22.272-.385.092-.802.253-1.019.538-.468.619-.44,1.012-.44,1.012,0,0,.463-.436,1.093-.452.029,0,.055,0,.082.001.03.133.104.314.212.523-.112.08-.209.171-.279.277-.424.649-.368,1.04-.368,1.04,0,0,.578-.459,1.058-.528.018-.003.035-.003.052-.005.149.226.311.455.477.673-.003.005-.007.008-.01.013-.425.647-.369,1.04-.369,1.04,0,0,.427-.339.854-.478.124.137.245.261.356.359.679.599,2.129.243,4.103-.326l1.39-.365c.948-.176,1.539-.555,1.975-1.267.193-.317,1.055-2.328,1.294-2.909.426-1.046.906-2.124,1.371-3.111.233-.197.453-.375.629-.497.775-.539,2.437-1.487,2.437-1.487,0,0-.332-.711-.968-.764-.008-.002.651-.633,1.31-1.054.61-.391,1.719-.611,1.719-.611,0,0-.798-.607-1.364-.852-.333-.145-.805-.237-1.141-.288-.097-.472-.336-.629-.694-.811-.317-.161-.753-.383-1.416-1.163-.853-1.003-.981-2.92-.981-4.834,0-.42.006-.841.013-1.251l.004-1.837c-.057-2.157-.373-3.664-.671-4.657,2.813-.256,7.971-.825,10.083-3.409.634-.776.955-1.684.955-2.674,0-.442-.064-.901-.193-1.371h0Z"/>
    <path class="cls-5" d="M32.251,44.162c.441-.305,1.493-1.177.931-2.239-.596-1.12-1.966-.663-2.373-.495-.057-.058-3.09-1.377-3.131-1.354.028-.02-1.185,1.403-1.184,1.403,0,0-1.208-1.423-1.182-1.403-.041-.023-3.074,1.296-3.13,1.354-.407-.167-1.776-.624-2.373.495-.564,1.062.488,1.934.929,2.239-.006.018-.01.026-.01.026,0,0-.989,1.753-.977,1.732.016-.028,2.858,3.443,2.857,3.443.003-.008-.005,2.233-.005,2.243,0,0,1.13.76,1.217.783.18.852.235,1.292.434,1.752.063.149,1.147.465,2.2.484h.085c1.052-.018,2.135-.334,2.199-.484.198-.46.254-.901.434-1.752.087-.023,1.21-.783,1.21-.783.003.004,0-2.237.003-2.243-.003,0,2.842-3.471,2.857-3.443.011.021-.977-1.732-.977-1.732,0,0-.005-.008-.013-.026h0ZM22.424,44.336l2.539-.029h.101s-.095,1.477-.095,1.477l-2.545-1.448h0ZM28.353,45.819c.013.117.405,3.539.405,3.539,0,0-1.857,1.007-1.949,1.058,0,.098-.011,1.179-.012,1.262.085.066.42.317.768.463.626.266,1.255.109,1.261.107l.158-.04-.134.469-.057.011c-.03.005-.736.135-1.311-.039-.5-.152-.761-.344-.83-.4h-.303c-.069.052-.344.247-.849.4-.574.174-1.281.044-1.31.039l-.057-.011-.134-.469.158.04c.006.002.634.158,1.263-.107.345-.147.682-.399.766-.463,0-.084-.005-1.189-.005-1.276-.075-.054-1.942-1.382-1.942-1.382,0,0,3.299-.004,3.476-.004v-4.631l2.748-.022.347-.003s-2.357,1.399-2.457,1.458h0Z"/>
    <path class="cls-5" d="M51.559,69.755c.374-.346.562-.536.562-.783,0-.212-.138-.465-.418-.896-.211-.326-.296-.718-.296-1.136,0-1.385.923-3.051,1.286-3.656-.104-.13-.251-.32-.433-.57-.097-.064-.182-.121-.234-.157-.235-.166-.841-.676-1.218-1.173-.051-.07-.106-.157-.161-.251-.781-.023-2.603-.076-4.477.495.578.333.712.764.737,1.316-1.234-.268-2.276-.284-3.212-.148.326.557.662,1.117.819,1.339.817,1.158,2.041,2.748,3.025,3.734.16.16.229.372.229.63,0,.61-.384,1.481-.861,2.564l-.252.575-1.488,3.5-.217.013c-.1.006-2.448.149-3.215.11-.838-.04-1.479.102-1.872.407.046.161.079.371.02.57-.077.262-.242.395-.374.463.017.037.038.077.06.12.461-.154.902-.197.902-.197,0,0,.255.335.151.754-.082.32-.236.488-.346.572.032.044.063.088.095.132.521-.21,1.089-.267,1.089-.267,0,0,.267.407.178.846-.047.238-.167.375-.277.453.628.2,2.253-.266,3.264-.557l1.466-.382c.754-.141,1.175-.405,1.503-.942l.325-.707c.184-.427.393-.911.574-1.196.453-.71.964-1.75,1.458-2.755.643-1.31,1.199-2.441,1.608-2.819h0Z"/>
    <path class="cls-5" d="M23.55,60.725c.002.015,0,.027.001.042h.012c-.005-.014-.008-.028-.014-.042h0Z"/>
    <path class="cls-5" d="M20.525,56.685c-.454.684-1.279,1.003-2.347,1.136.202-1.066.018-1.795-.375-2.638-.342-.744-1.281-2.202-1.559-3.029-.079-.234-.153-.451-.221-.657-1.486-1.08-3.118-2.394-3.937-3.48-.194-.256-.485-1.173-1.058-3.058l-.258-.845-.134-.474c-.377-1.387-.675-2.14-.884-2.24-.143-.034-.275-.051-.402-.061v.002s-.065.424-.78.391c-.167-.007-.306-.063-.414-.125-.061.039-.119.079-.169.12l-.059.047c-.036.028-.071.058-.106.088.418.379.72.869.72.869,0,0-.159.435-.704.532-.392.068-.697-.211-.697-.211,0,0,.005-.135-.05-.331-.165.319-.241.69-.157,1.125.553.285,1.03.801,1.03.801,0,0-.013.409-.581.695-.214.109-.433.046-.576-.022-.071.421.165,1.016.603,1.416l1.539,1.272.033.076c.489,1.102,1.064,2.135,1.398,2.515.126.143.583.923,1.855,3.112,1.688,2.904,4.239,7.294,4.895,8.025.253.236,1.992-.169,3.71-.855-.614-1.697-.081-2.735-.315-4.195h0Z"/>
    <path class="cls-5" d="M71.073,46.464c-.313-1.144-.843-1.615-1.65-2.044-2.307-1.224-5.472-.314-8.258.635-2.372.808-3.026,1.014-5.494,1.392-2.515.386-8.598,1.092-10.76-.696-.433-.358-.81-1.047-.857-1.571-.07-.862.294-1.889.677-2.307.662-.725,1.932-1.049,4.118-1.049,0,0,3.28.052,5.092.08l.382-.344-.373-.399c-2.266-.148-4.051-.23-5.084-.23-2.648,0-4.148.401-5.014,1.342-.705.767-1.01,1.775-.908,2.998.078.915.488,1.685,1.22,2.288,2.274,1.882,8.941,1.442,11.813.934,2.799-.494,3.631-.709,5.238-1.241l.093-.032c1.486-.497,5.435-1.817,7.327-.813.51.27.852.74,1.043,1.436.234.849.118,1.541-.353,2.118-1.684,2.058-7.101,2.35-10.01,2.507l-.063.003-.05-.013c-.017-.004-1.707-.417-3.917-.43-1.406-.008-2.595.082-3.854.177-2.356.178-4.792.363-8.848-.101-1.802-.206-3.5-.535-4.83-.915-.084.544-.301,1.161-.571,1.961-.278.827-1.215,2.286-1.56,3.03-.392.844-.575,1.572-.376,2.638-1.066-.133-1.89-.452-2.346-1.136-.32,2.003.812,3.205-1.568,6.415-.238-.971-1.572-1.275-1.454-2.375-.419,1.143.254,1.807-.701,3.7-.24.476-1.575,2.443-2.298,3.017-.293,1.363-.808,3.66-1.338,5.552-.724,2.579-1.315,3.748-1.602,4.215l-.097.157-.184.01c-.765.041-2.566.106-3.137.081-.792-.038-1.413.083-1.824.346.038.197.059.477-.061.682-.143.245-.342.352-.447.394.018.042.04.089.066.143.513-.146,1.031-.158,1.031-.158,0,0,.213.431-.007.953-.089.212-.214.317-.305.369.05.071.1.141.152.211.544-.24,1.179-.304,1.179-.304,0,0,.247.321.086.983-.05.206-.161.309-.255.362.717.224,2.73-.311,3.862-.613,0,0,1.431-.352,1.431-.352.778-.145,1.213-.418,1.553-.976.069-.113.184-.457.284-.761,0,0,.134-.398.135-.399.318-.897.582-1.505,1.224-2.533,1.465-2.343,5.795-9.425,5.971-9.994.005-.029.007-.065.007-.107,0-.374-.183-1.202-.331-1.729l-.093-.335s14.022-4.1,14.833-4.337c-.283-.489-.863-1.491-.863-1.491l.511-.461c.046.033,1.123.816,1.716,1.408.519.521,1.021,1.325,1.553,2.175l.271.432c.6.951,1.192,1.655,1.197,1.663l.022.026.016.028c.005.008.474.824,1.942,2.456l3.713,4.064-.041.18c-.005.019-.444,1.91-1.218,4.014-.507,1.386-1.261,2.866-1.562,3.438l-.093.176-.198.011c-.713.04-2.438.132-3.074.103-.785-.038-1.397.084-1.795.35.054.185.104.47-.005.694-.122.248-.3.385-.401.448.016.032.034.066.053.103.464-.155.908-.2.908-.2,0,0,.225.366.152.831-.051.311-.213.452-.334.516.045.062.091.124.137.186.558-.27,1.254-.339,1.254-.339,0,0,.235.323.155.823-.037.232-.194.388-.319.48.721.085,2.166-.33,3.095-.598,0,0,1.456-.38,1.457-.38.752-.14,1.174-.404,1.503-.943.142-.233.941-2.073,1.243-2.809.879-2.158,2.178-4.887,3.018-6.347l.467-.736c.276-.411.514-.766.492-1.008-.029-.329-.047-.338-.347-.49-.35-.178-.879-.446-1.634-1.335-1.211-1.425-1.171-4.148-1.136-6.551l.004-1.808c-.062-2.375-.447-3.961-.759-4.872l-.146-.425.447-.04c2.597-.231,7.999-.711,10.028-3.193.768-.939.985-2.119.629-3.413h0Z"/>
    <path class="cls-3" d="M57.079,18.579c.304.397.559.834.75,1.305-.246.033-.496.056-.75.056s-.505-.02-.751-.053c.191-.472.446-.909.751-1.307h0Z"/>
    <path class="cls-5" d="M65.446,14.585c.003-.09.014-.179.014-.27,0-4.621-3.76-8.381-8.381-8.381s-8.381,3.76-8.381,8.381l.01.273c-2.656,1.408-4.471,4.198-4.471,7.408,0,4.621,3.76,8.381,8.381,8.381,1.594,0,3.13-.45,4.467-1.295,1.293.816,2.818,1.295,4.456,1.295,4.622,0,8.381-3.76,8.381-8.381,0-3.097-1.748-5.969-4.475-7.411h0ZM56.43,22.649l.649.047c.219,0,.434-.016.649-.033-.087.675-.306,1.32-.647,1.908-.336-.58-.562-1.229-.65-1.922h0ZM60.988,21.723c1.597-.846,2.883-2.196,3.66-3.834,1.288.972,2.048,2.468,2.048,4.106,0,2.843-2.313,5.156-5.156,5.156-.715,0-1.397-.147-2.018-.412.965-1.397,1.476-3.024,1.476-4.744l-.01-.273h0ZM52.617,13.614c-.22,0-.436.016-.652.033.324-2.556,2.476-4.488,5.114-4.488,2.621,0,4.787,1.967,5.109,4.502l-.648-.047c-1.588,0-3.117.447-4.452,1.286-1.305-.821-2.842-1.286-4.471-1.286h0ZM61.54,16.84l.028.002c-.347.614-.816,1.147-1.374,1.572-.192-.408-.412-.797-.661-1.162.632-.267,1.316-.412,2.007-.412h0ZM49.505,17.894c.774,1.64,2.053,2.976,3.664,3.827-.003.092-.011.182-.011.275,0,1.758.547,3.39,1.476,4.739-.635.27-1.321.417-2.018.417-2.843,0-5.156-2.313-5.156-5.156,0-1.674.805-3.159,2.044-4.102h0ZM53.962,18.418c-.559-.427-1.028-.966-1.374-1.577.01,0,.019-.002.029-.002.711,0,1.393.146,2.019.411-.258.374-.482.764-.674,1.168h0Z"/>
    <path class="cls-3" d="M58.67,22.578c.473-.092.929-.229,1.37-.397-.028,1.507-.497,2.929-1.363,4.148-.379-.252-.72-.555-1.019-.895.577-.854.923-1.828,1.012-2.855h0Z"/>
    <path class="cls-3" d="M57.077,6.92c4.105,0,7.443,3.339,7.443,7.443s-3.339,7.443-7.443,7.443l-.683-.05c.025-.457.106-.902.246-1.328l.436.029c3.36,0,6.094-2.734,6.094-6.094s-2.734-6.094-6.094-6.094c-3.2,0-5.79,2.41-6.063,5.551-.474.092-.931.229-1.373.398.079-4.037,3.381-7.298,7.436-7.298h0Z"/>
    <path class="cls-3" d="M61.539,14.6l.68.049c-.026.461-.109.907-.248,1.328l-.432-.028c-.901,0-1.787.211-2.596.593-.315-.363-.656-.699-1.025-1,1.103-.616,2.341-.942,3.62-.942h0Z"/>
    <path class="cls-3" d="M52.615,29.487c-4.104,0-7.443-3.339-7.443-7.443s3.339-7.443,7.443-7.443c2.953,0,5.567,1.702,6.774,4.364-.4.202-.827.358-1.277.45-1.01-2.116-3.127-3.465-5.497-3.465-3.36,0-6.094,2.734-6.094,6.094s2.734,6.094,6.094,6.094c.906,0,1.797-.214,2.609-.6.314.36.654.697,1.025,1-1.107.621-2.35.949-3.634.949h0Z"/>
    <path class="cls-3" d="M51.582,16.992c.454.945,1.153,1.768,2.014,2.37-.152.451-.264.916-.337,1.391-1.301-.778-2.325-1.929-2.953-3.312.399-.201.826-.356,1.276-.448h0Z"/>
    <path class="cls-3" d="M61.539,29.487c-4.105,0-7.443-3.339-7.443-7.443,0-1.563.477-3.039,1.373-4.299.377.25.719.551,1.02.895-.682,1.007-1.044,2.175-1.044,3.405,0,3.36,2.734,6.094,6.094,6.094s6.094-2.734,6.094-6.094c0-2.02-.979-3.854-2.624-4.995.153-.45.265-.916.34-1.396,2.225,1.333,3.633,3.772,3.633,6.391,0,4.104-3.339,7.443-7.443,7.443h0Z"/>
  </g>
</svg>