<?xml version="1.0" encoding="UTF-8"?>
<svg id="Layer_1" data-name="Layer 1" xmlns="http://www.w3.org/2000/svg" viewBox="0 0 283.168 98.421">
  <defs>
    <style>
      .cls-1 {
        fill: #58595b;
      }

      .cls-2 {
        fill: #319645;
      }
    </style>
  </defs>
  <path class="cls-1" d="M36.123,88.312V23.265c-.798-.433-1.34-1.281-1.34-2.256,0-1.419,1.153-2.572,2.572-2.572,1.428,0,2.581,1.153,2.581,2.572,0,.986-.542,1.832-1.35,2.266v65.038c0,.68-.542,1.232-1.232,1.232-.68,0-1.232-.552-1.232-1.232Z"/>
  <path class="cls-1" d="M22.221,49.867c0,.976-.542,1.823-1.34,2.256v40.505c0,.68-.552,1.232-1.232,1.232s-1.232-.552-1.232-1.232v-40.495c-.808-.434-1.35-1.281-1.35-2.266,0-1.419,1.153-2.572,2.582-2.572,1.419,0,2.571,1.153,2.571,2.572Z"/>
  <g>
    <path class="cls-2" d="M48.793,35.462c0,.985-.541,1.832-1.35,2.266v50.603c0,5.38-4.227,9.784-9.527,10.08-.187,0-.374.01-.562.01-.177,0-.364,0-.542-.01-5.301-.286-9.537-4.69-9.537-10.08v-50.603c-.808-.434-1.35-1.281-1.35-2.266,0-1.419,1.152-2.572,2.581-2.572,1.419,0,2.572,1.153,2.572,2.572,0,.976-.542,1.823-1.34,2.256v50.613c0,4.069,3.192,7.4,7.192,7.616.138.01.286.01.424.01.148,0,.286,0,.433-.01,4.001-.226,7.192-3.557,7.192-7.616v-50.613c-.798-.434-1.34-1.281-1.34-2.256,0-1.419,1.152-2.572,2.571-2.572,1.429,0,2.581,1.153,2.581,2.572Z"/>
    <path class="cls-2" d="M74.667,61.02c0,9.36-3.488,18.365-9.823,25.341-.019.02-.029.029-.049.039-.216.227-.522.364-.867.364-.089,0-.167-.009-.246-.029-.177-.03-.345-.108-.483-.217-.039-.02-.069-.04-.099-.069-.02-.02-.029-.03-.04-.049-.226-.216-.364-.522-.364-.867v-19.006c-.808-.433-1.35-1.281-1.35-2.256,0-1.419,1.162-2.572,2.581-2.572,1.429,0,2.582,1.153,2.582,2.572,0,.985-.542,1.832-1.35,2.266v15.557c4.503-6.059,7.045-13.567,7.045-21.075,0-7.449-2.434-14.621-7.035-20.75L37.355,3.254,9.55,40.27c-9.508,12.651-9.37,29.421.01,41.855v-15.587c-.808-.433-1.35-1.281-1.35-2.266,0-1.419,1.152-2.572,2.581-2.572,1.419,0,2.582,1.153,2.582,2.572,0,.985-.552,1.832-1.35,2.266v19.006c0,.335-.138.651-.364.867-.01.02-.02.03-.04.049-.029.02-.059.049-.089.069-.138.108-.306.187-.492.217-.079.019-.158.029-.247.029-.207,0-.404-.049-.571-.148-.049-.02-.099-.049-.138-.079-.118-.089-.227-.197-.315-.315-12.158-13.488-13.055-32.977-2.187-47.441L36.37.465c.473-.621,1.507-.621,1.97,0l28.8,38.327c4.926,6.562,7.528,14.247,7.528,22.228Z"/>
  </g>
  <path class="cls-1" d="M57.651,49.867c0,.986-.542,1.832-1.35,2.266v40.485c0,.68-.552,1.232-1.232,1.232s-1.232-.552-1.232-1.232v-40.495c-.798-.434-1.34-1.281-1.34-2.256,0-1.419,1.153-2.572,2.572-2.572,1.428,0,2.581,1.153,2.581,2.572Z"/>
  <g>
    <path class="cls-1" d="M101.679,53.506c-3.142-1.729-5.605-4.108-7.389-7.139-1.785-3.029-2.675-6.441-2.675-10.233s.891-7.203,2.675-10.233c1.784-3.029,4.256-5.409,7.419-7.139,3.159-1.728,6.69-2.592,10.596-2.592,3.046,0,5.834.511,8.365,1.534,2.527,1.022,4.683,2.537,6.467,4.545l-3.624,3.514c-2.936-3.086-6.601-4.629-10.985-4.629-2.902,0-5.521.651-7.866,1.953-2.341,1.301-4.172,3.094-5.492,5.38-1.32,2.288-1.979,4.844-1.979,7.668s.658,5.382,1.979,7.668c1.32,2.286,3.151,4.081,5.492,5.382,2.344,1.301,4.964,1.951,7.866,1.951,4.349,0,8.011-1.561,10.985-4.685l3.624,3.514c-1.784,2.007-3.949,3.532-6.496,4.572-2.547,1.042-5.344,1.562-8.393,1.562-3.902,0-7.425-.864-10.567-2.594Z"/>
    <path class="cls-1" d="M133.297,19.405c-.688-.67-1.033-1.487-1.033-2.454s.345-1.793,1.033-2.482c.688-.688,1.553-1.031,2.594-1.031s1.904.326,2.594.977c.685.651,1.03,1.459,1.03,2.425,0,1.004-.345,1.85-1.03,2.537-.69.689-1.555,1.031-2.594,1.031s-1.906-.334-2.594-1.003ZM133.213,26.097h5.353v29.556h-5.353v-29.556Z"/>
    <path class="cls-1" d="M177.83,38.84c1.3,1.654,1.95,3.746,1.95,6.273,0,3.384-1.274,5.987-3.819,7.807-2.547,1.822-6.255,2.733-11.126,2.733h-18.627V16.616h17.513c4.459,0,7.909.892,10.343,2.678,2.434,1.784,3.653,4.257,3.653,7.416,0,2.045-.472,3.812-1.422,5.298-.949,1.488-2.223,2.621-3.821,3.402,2.269.634,4.053,1.777,5.356,3.43ZM151.785,21.133v12.492h11.435c2.861,0,5.062-.529,6.606-1.588,1.543-1.06,2.315-2.611,2.315-4.657s-.772-3.598-2.315-4.657c-1.544-1.06-3.745-1.59-6.606-1.59h-11.435ZM171.752,49.575c1.596-1.04,2.397-2.677,2.397-4.908,0-4.351-3.18-6.525-9.537-6.525h-12.827v12.994h12.827c3.16,0,5.539-.52,7.14-1.561Z"/>
    <path class="cls-1" d="M214.522,50.802v4.851h-28.332V16.616h27.548v4.852h-21.972v11.99h19.575v4.741h-19.575v12.603h22.755Z"/>
    <path class="cls-1" d="M225.312,54.734c-2.733-.911-4.88-2.092-6.441-3.541l2.063-4.35c1.489,1.339,3.392,2.426,5.716,3.262,2.324.837,4.714,1.255,7.166,1.255,3.235,0,5.652-.548,7.25-1.645,1.599-1.097,2.4-2.556,2.4-4.378,0-1.337-.438-2.426-1.312-3.262-.873-.836-1.953-1.477-3.235-1.923-1.282-.446-3.096-.948-5.437-1.506-2.936-.705-5.306-1.413-7.111-2.12-1.802-.705-3.345-1.793-4.628-3.263-1.282-1.468-1.923-3.447-1.923-5.939,0-2.082.548-3.959,1.645-5.632,1.097-1.674,2.759-3.011,4.99-4.016,2.232-1.003,4.999-1.506,8.31-1.506,2.304,0,4.572.297,6.804.892,2.231.594,4.146,1.449,5.745,2.565l-1.84,4.463c-1.636-1.042-3.386-1.831-5.243-2.371-1.86-.538-3.682-.809-5.466-.809-3.159,0-5.53.577-7.111,1.729-1.578,1.153-2.37,2.64-2.37,4.462,0,1.337.447,2.425,1.34,3.261.891.837,1.996,1.488,3.316,1.953,1.32.466,3.116.958,5.382,1.478,2.936.706,5.297,1.413,7.082,2.118,1.784.708,3.319,1.786,4.601,3.235,1.282,1.451,1.924,3.402,1.924,5.857,0,2.044-.557,3.912-1.671,5.604-1.117,1.692-2.808,3.03-5.074,4.015-2.269.985-5.057,1.478-8.367,1.478-2.937,0-5.771-.455-8.504-1.367Z"/>
    <path class="cls-1" d="M264.263,21.468h-13.384v-4.852h32.289v4.852h-13.384v34.185h-5.521V21.468Z"/>
  </g>
  <g>
    <g>
      <path class="cls-1" d="M93.045,72.447c-.448-.243-.798-.579-1.051-1.007-.255-.43-.38-.914-.38-1.452s.127-1.022.383-1.451.609-.765,1.055-1.007c.448-.244.948-.365,1.502-.365.45,0,.861.079,1.232.236.372.156.685.384.941.682l-.658.62c-.397-.428-.886-.644-1.466-.644-.378,0-.714.083-1.012.247-.297.166-.53.394-.697.686-.168.293-.252.626-.252.996s.084.704.252.996c.167.293.4.522.697.687.299.164.635.247,1.012.247.58,0,1.069-.218,1.466-.652l.658.628c-.256.298-.57.525-.945.682-.373.157-.785.235-1.234.235-.555,0-1.055-.121-1.502-.365Z"/>
      <path class="cls-1" d="M101.982,71.878v.855h-4.118v-5.49h4.008v.854h-2.988v1.427h2.652v.84h-2.652v1.513h3.099Z"/>
      <path class="cls-1" d="M108.154,67.243v5.49h-.839l-3.027-3.718v3.718h-1.013v-5.49h.839l3.028,3.717v-3.717h1.011Z"/>
      <path class="cls-1" d="M110.9,68.105h-1.82v-.862h4.659v.862h-1.82v4.628h-1.019v-4.628Z"/>
      <path class="cls-1" d="M118.258,72.733l-1.121-1.608c-.048.005-.118.008-.212.008h-1.24v1.6h-1.019v-5.49h2.259c.475,0,.89.078,1.242.235.353.156.624.382.811.674.189.293.283.64.283,1.043,0,.413-.101.769-.302,1.068-.201.297-.49.519-.867.666l1.264,1.804h-1.098ZM117.889,68.388c-.23-.189-.567-.283-1.011-.283h-1.193v2.188h1.193c.444,0,.781-.095,1.011-.285.23-.191.346-.461.346-.813s-.116-.618-.346-.807Z"/>
      <path class="cls-1" d="M124.672,71.878v.855h-4.117v-5.49h4.008v.854h-2.988v1.427h2.652v.84h-2.652v1.513h3.098Z"/>
      <path class="cls-1" d="M129.308,68.097v1.671h2.652v.862h-2.652v2.102h-1.019v-5.49h4.008v.854h-2.988Z"/>
      <path class="cls-1" d="M134.429,72.447c-.449-.243-.803-.58-1.06-1.011-.256-.432-.383-.914-.383-1.448s.126-1.016.383-1.447c.256-.432.611-.769,1.06-1.011.449-.244.954-.365,1.514-.365s1.064.121,1.514.365c.449.243.802.579,1.058,1.007.256.428.384.912.384,1.451s-.128,1.022-.384,1.452c-.256.428-.609.765-1.058,1.007-.45.244-.955.365-1.514.365s-1.065-.121-1.514-.365ZM136.931,71.671c.293-.165.523-.395.69-.69.168-.296.251-.627.251-.993s-.082-.696-.251-.992c-.167-.295-.396-.525-.69-.69-.292-.164-.623-.247-.988-.247s-.696.083-.988.247c-.293.166-.523.396-.69.69-.168.296-.252.627-.252.992s.084.697.252.993c.167.295.397.525.69.69.292.164.621.247.988.247s.696-.083.988-.247Z"/>
      <path class="cls-1" d="M143.732,72.733l-1.121-1.608c-.048.005-.118.008-.212.008h-1.24v1.6h-1.019v-5.49h2.259c.475,0,.89.078,1.242.235.353.156.624.382.811.674.189.293.283.64.283,1.043,0,.413-.101.769-.302,1.068-.201.297-.49.519-.867.666l1.264,1.804h-1.098ZM143.363,68.388c-.23-.189-.568-.283-1.011-.283h-1.193v2.188h1.193c.443,0,.781-.095,1.011-.285.23-.191.346-.461.346-.813s-.116-.618-.346-.807Z"/>
      <path class="cls-1" d="M148.352,67.243h1.02v5.49h-1.02v-5.49Z"/>
      <path class="cls-1" d="M155.889,67.243v5.49h-.839l-3.027-3.718v3.718h-1.012v-5.49h.839l3.028,3.717v-3.717h1.011Z"/>
      <path class="cls-1" d="M158.635,68.105h-1.82v-.862h4.659v.862h-1.82v4.628h-1.019v-4.628Z"/>
      <path class="cls-1" d="M166.516,71.878v.855h-4.118v-5.49h4.008v.854h-2.988v1.427h2.652v.84h-2.652v1.513h3.098Z"/>
      <path class="cls-1" d="M171.537,69.926h.964v2.187c-.283.225-.612.398-.989.518-.376.12-.763.18-1.16.18-.559,0-1.065-.121-1.514-.365-.449-.243-.803-.579-1.06-1.007-.256-.43-.383-.914-.383-1.452s.127-1.022.383-1.451c.256-.428.612-.765,1.064-1.007.452-.244.96-.365,1.525-.365.46,0,.879.076,1.255.228.376.151.693.373.949.666l-.643.627c-.419-.417-.923-.627-1.514-.627-.387,0-.73.081-1.03.243-.302.162-.536.39-.707.684-.169.292-.255.627-.255,1.003,0,.366.086.695.255.989.171.292.405.522.707.69.3.167.642.251,1.024.251.428,0,.805-.094,1.13-.283v-1.71Z"/>
      <path class="cls-1" d="M177.591,72.733l-1.121-1.608c-.047.005-.118.008-.212.008h-1.24v1.6h-1.019v-5.49h2.259c.474,0,.89.078,1.242.235.353.156.626.382.813.674.187.293.281.64.281,1.043,0,.413-.099.769-.303,1.068-.198.297-.491.519-.865.666l1.262,1.804h-1.097ZM177.222,68.388c-.231-.189-.567-.283-1.011-.283h-1.193v2.188h1.193c.444,0,.78-.095,1.011-.285.231-.191.347-.461.347-.813s-.116-.618-.347-.807Z"/>
      <path class="cls-1" d="M183.449,71.463h-2.745l-.54,1.27h-1.053l2.471-5.49h1.006l2.475,5.49h-1.064l-.551-1.27ZM183.113,70.663l-1.036-2.4-1.025,2.4h2.061Z"/>
      <path class="cls-1" d="M186.761,68.105h-1.822v-.862h4.659v.862h-1.818v4.628h-1.019v-4.628Z"/>
      <path class="cls-1" d="M194.641,71.878v.855h-4.117v-5.49h4.006v.854h-2.987v1.427h2.65v.84h-2.65v1.513h3.097Z"/>
      <path class="cls-1" d="M195.939,67.243h2.4c.585,0,1.105.113,1.56.34.454.227.807.55,1.058.966.253.415.378.896.378,1.439s-.124,1.023-.378,1.44c-.251.416-.603.737-1.058.964-.455.227-.975.342-1.56.342h-2.4v-5.49ZM198.292,71.871c.402,0,.755-.077,1.061-.231.306-.154.542-.375.705-.658.165-.285.248-.616.248-.993s-.083-.707-.248-.992c-.163-.285-.4-.504-.705-.658-.306-.154-.659-.232-1.061-.232h-1.333v3.765h1.333Z"/>
      <path class="cls-1" d="M209.504,70.376c.179.233.267.522.267.867,0,.477-.181.843-.548,1.102-.366.259-.901.388-1.601.388h-2.728v-5.49h2.571c.65,0,1.149.127,1.499.38.35.253.526.602.526,1.047,0,.271-.063.513-.19.722-.124.209-.298.37-.515.486.303.099.543.265.719.497ZM205.913,68.042v1.514h1.441c.356,0,.631-.063.821-.191.19-.128.287-.316.287-.561,0-.251-.096-.441-.287-.569-.19-.128-.465-.193-.821-.193h-1.441ZM208.743,71.141c0-.527-.394-.792-1.185-.792h-1.645v1.584h1.645c.791,0,1.185-.263,1.185-.792Z"/>
      <path class="cls-1" d="M211.606,72.172c-.424-.426-.634-1.036-.634-1.831v-3.098h1.019v3.059c0,1.077.463,1.616,1.395,1.616.926,0,1.389-.539,1.389-1.616v-3.059h1.003v3.098c0,.795-.21,1.405-.631,1.831-.418.426-1.008.639-1.769.639s-1.347-.213-1.772-.639Z"/>
      <path class="cls-1" d="M217.365,67.243h1.02v5.49h-1.02v-5.49Z"/>
      <path class="cls-1" d="M220.024,67.243h1.019v4.627h2.871v.863h-3.891v-5.49Z"/>
      <path class="cls-1" d="M224.879,67.243h2.4c.584,0,1.105.113,1.56.34.455.227.807.55,1.058.966.254.415.378.896.378,1.439s-.124,1.023-.378,1.44c-.25.416-.603.737-1.058.964-.455.227-.976.342-1.56.342h-2.4v-5.49ZM227.232,71.871c.402,0,.755-.077,1.061-.231.306-.154.543-.375.706-.658.165-.285.248-.616.248-.993s-.083-.707-.248-.992c-.163-.285-.4-.504-.706-.658-.306-.154-.658-.232-1.061-.232h-1.334v3.765h1.334Z"/>
      <path class="cls-1" d="M231.516,67.243h1.019v5.49h-1.019v-5.49Z"/>
      <path class="cls-1" d="M239.052,67.243v5.49h-.837l-3.028-3.718v3.718h-1.011v-5.49h.837l3.028,3.717v-3.717h1.011Z"/>
      <path class="cls-1" d="M244.43,69.926h.964v2.187c-.281.225-.612.398-.986.518-.378.12-.763.18-1.163.18-.559,0-1.063-.121-1.512-.365-.449-.243-.802-.579-1.058-1.007-.256-.43-.386-.914-.386-1.452s.13-1.022.386-1.451c.257-.428.609-.765,1.061-1.007.455-.244.962-.365,1.526-.365.46,0,.879.076,1.256.228.375.151.692.373.948.666l-.642.627c-.419-.417-.923-.627-1.516-.627-.386,0-.73.081-1.03.243-.3.162-.537.39-.705.684-.171.292-.257.627-.257,1.003,0,.366.086.695.257.989.168.292.405.522.705.69.301.167.642.251,1.022.251.43,0,.807-.094,1.129-.283v-1.71Z"/>
      <path class="cls-1" d="M253.333,71.878v.855h-4.117v-5.49h4.006v.854h-2.987v1.427h2.65v.84h-2.65v1.513h3.097Z"/>
      <path class="cls-1" d="M259.505,67.243v5.49h-.837l-3.028-3.718v3.718h-1.012v-5.49h.838l3.028,3.717v-3.717h1.011Z"/>
      <path class="cls-1" d="M265.255,71.878v.855h-4.117v-5.49h4.006v.854h-2.987v1.427h2.651v.84h-2.651v1.513h3.097Z"/>
      <path class="cls-1" d="M270.14,72.733l-1.121-1.608c-.047.005-.116.008-.212.008h-1.237v1.6h-1.019v-5.49h2.256c.477,0,.893.078,1.246.235.352.156.622.382.81.674.19.293.284.64.284,1.043,0,.413-.102.769-.303,1.068-.201.297-.49.519-.865.666l1.262,1.804h-1.1ZM269.774,68.388c-.232-.189-.568-.283-1.014-.283h-1.19v2.188h1.19c.446,0,.783-.095,1.014-.285.229-.191.344-.461.344-.813s-.116-.618-.344-.807Z"/>
      <path class="cls-1" d="M276.189,69.926h.964v2.187c-.281.225-.612.398-.986.518-.378.12-.763.18-1.163.18-.559,0-1.064-.121-1.513-.365-.449-.243-.802-.579-1.058-1.007-.257-.43-.386-.914-.386-1.452s.129-1.022.386-1.451c.256-.428.609-.765,1.061-1.007.455-.244.962-.365,1.527-.365.46,0,.879.076,1.256.228.374.151.692.373.948.666l-.642.627c-.419-.417-.923-.627-1.515-.627-.386,0-.73.081-1.031.243-.301.162-.537.39-.706.684-.171.292-.256.627-.256,1.003,0,.366.085.695.256.989.168.292.405.522.706.69.3.167.642.251,1.022.251.43,0,.807-.094,1.13-.283v-1.71Z"/>
      <path class="cls-1" d="M281.019,70.796v1.937h-1.02v-1.922l-2.157-3.568h1.091l1.609,2.674,1.623-2.674h1.003l-2.149,3.553Z"/>
    </g>
    <g>
      <path class="cls-1" d="M95.951,83.634h-2.746l-.541,1.27h-1.05l2.47-5.49h1.004l2.479,5.49h-1.068l-.548-1.27ZM95.613,82.834l-1.035-2.4-1.028,2.4h2.062Z"/>
      <path class="cls-1" d="M103.299,79.415v5.49h-.839l-3.027-3.718v3.718h-1.012v-5.49h.839l3.028,3.717v-3.717h1.012Z"/>
      <path class="cls-1" d="M104.93,79.415h2.4c.585,0,1.106.113,1.561.34s.809.55,1.059.966c.251.415.376.896.376,1.439s-.126,1.023-.376,1.44c-.251.416-.605.737-1.059.964s-.975.342-1.561.342h-2.4v-5.49ZM107.284,84.043c.402,0,.757-.077,1.063-.232.306-.154.54-.375.705-.658.165-.285.247-.616.247-.993s-.081-.707-.247-.992-.4-.504-.705-.658c-.306-.154-.661-.231-1.063-.231h-1.334v3.765h1.334Z"/>
      <path class="cls-1" d="M114.363,84.803c-.395-.12-.708-.28-.938-.478l.353-.792c.226.178.502.322.828.435.327.112.654.168.985.168.408,0,.712-.065.914-.196s.302-.303.302-.518c0-.157-.056-.287-.168-.389-.113-.102-.255-.182-.428-.238-.172-.058-.408-.124-.706-.197-.419-.099-.756-.198-1.015-.297-.259-.099-.482-.255-.667-.467-.186-.212-.278-.497-.278-.858,0-.303.081-.58.247-.828.165-.248.413-.445.745-.593.332-.146.738-.219,1.219-.219.335,0,.664.041.989.125.324.084.603.204.839.361l-.322.792c-.24-.142-.492-.248-.752-.322-.261-.073-.515-.109-.762-.109-.402,0-.701.068-.897.204-.197.135-.295.315-.295.541,0,.156.056.284.168.383.113.1.257.179.428.235.172.058.408.124.706.197.408.094.742.192,1.004.293.262.102.485.257.671.467.185.209.278.492.278.847,0,.303-.083.577-.248.824-.164.245-.413.441-.748.588-.335.146-.743.219-1.224.219-.424,0-.833-.061-1.228-.18Z"/>
      <path class="cls-1" d="M119.566,84.344c-.423-.426-.635-1.036-.635-1.831v-3.098h1.02v3.059c0,1.077.466,1.616,1.397,1.616.924,0,1.387-.539,1.387-1.616v-3.059h1.004v3.098c0,.795-.211,1.405-.631,1.831-.421.426-1.011.639-1.769.639s-1.349-.214-1.773-.639Z"/>
      <path class="cls-1" d="M125.799,84.803c-.396-.12-.708-.28-.938-.478l.352-.792c.226.178.502.322.828.435.326.112.654.168.985.168.408,0,.712-.065.914-.196s.302-.303.302-.518c0-.157-.057-.287-.168-.389-.113-.102-.255-.182-.428-.238-.172-.058-.408-.124-.705-.197-.419-.099-.756-.198-1.016-.297-.259-.099-.482-.255-.667-.467-.186-.212-.278-.497-.278-.858,0-.303.081-.58.247-.828.166-.248.414-.445.745-.593.332-.146.738-.219,1.219-.219.335,0,.664.041.989.125.324.084.603.204.839.361l-.322.792c-.24-.142-.492-.248-.752-.322-.261-.073-.515-.109-.761-.109-.402,0-.702.068-.897.204-.197.135-.295.315-.295.541,0,.156.057.284.168.383.113.1.256.179.428.235.172.058.408.124.706.197.408.094.742.192,1.004.293.262.102.485.257.671.467.185.209.278.492.278.847,0,.303-.082.577-.248.824-.164.245-.414.441-.748.588-.335.146-.742.219-1.224.219-.424,0-.833-.061-1.227-.18Z"/>
      <path class="cls-1" d="M131.451,80.277h-1.82v-.863h4.659v.863h-1.82v4.627h-1.019v-4.627Z"/>
      <path class="cls-1" d="M138.501,83.634h-2.745l-.541,1.27h-1.05l2.47-5.49h1.004l2.479,5.49h-1.068l-.549-1.27ZM138.164,82.834l-1.035-2.4-1.028,2.4h2.062Z"/>
      <path class="cls-1" d="M140.972,79.415h1.02v5.49h-1.02v-5.49Z"/>
      <path class="cls-1" d="M148.507,79.415v5.49h-.839l-3.027-3.718v3.718h-1.012v-5.49h.839l3.028,3.717v-3.717h1.011Z"/>
      <path class="cls-1" d="M153.701,83.634h-2.746l-.541,1.27h-1.05l2.47-5.49h1.004l2.478,5.49h-1.068l-.548-1.27ZM153.364,82.834l-1.035-2.4-1.028,2.4h2.062Z"/>
      <path class="cls-1" d="M160.784,82.548c.178.233.266.522.266.866,0,.477-.183.843-.548,1.102-.367.259-.9.388-1.601.388h-2.729v-5.49h2.574c.648,0,1.147.127,1.498.38s.525.602.525,1.047c0,.271-.062.513-.187.722s-.299.37-.518.486c.303.099.544.264.722.497ZM157.191,80.214v1.514h1.444c.356,0,.628-.063.82-.191.19-.128.287-.316.287-.561,0-.251-.097-.441-.287-.569-.192-.128-.464-.193-.82-.193h-1.444ZM160.023,83.312c0-.527-.395-.792-1.184-.792h-1.648v1.584h1.648c.789,0,1.184-.263,1.184-.792Z"/>
      <path class="cls-1" d="M162.297,79.415h1.019v5.49h-1.019v-5.49Z"/>
      <path class="cls-1" d="M164.955,79.415h1.02v4.628h2.871v.862h-3.891v-5.49Z"/>
      <path class="cls-1" d="M169.81,79.415h1.019v5.49h-1.019v-5.49Z"/>
      <path class="cls-1" d="M173.584,80.277h-1.82v-.863h4.658v.863h-1.818v4.627h-1.019v-4.627Z"/>
      <path class="cls-1" d="M179.64,82.968v1.937h-1.022v-1.922l-2.157-3.568h1.091l1.609,2.674,1.623-2.674h1.003l-2.147,3.553Z"/>
      <path class="cls-1" d="M184.933,79.415h1.019v5.49h-1.019v-5.49Z"/>
      <path class="cls-1" d="M192.469,79.415v5.49h-.837l-3.028-3.718v3.718h-1.012v-5.49h.838l3.028,3.717v-3.717h1.011Z"/>
      <path class="cls-1" d="M197.536,80.277h-1.821v-.863h4.659v.863h-1.818v4.627h-1.02v-4.627Z"/>
      <path class="cls-1" d="M206.179,79.415v5.49h-1.02v-2.353h-2.838v2.353h-1.019v-5.49h1.019v2.266h2.838v-2.266h1.02Z"/>
      <path class="cls-1" d="M211.93,84.049v.855h-4.117v-5.49h4.006v.854h-2.987v1.427h2.65v.841h-2.65v1.512h3.097Z"/>
      <path class="cls-1" d="M216.658,80.277h-1.822v-.863h4.659v.863h-1.818v4.627h-1.019v-4.627Z"/>
      <path class="cls-1" d="M224.015,84.905l-1.121-1.608c-.047.006-.116.009-.212.009h-1.238v1.599h-1.019v-5.49h2.257c.477,0,.893.079,1.245.236.353.156.623.382.81.674.19.293.283.641.283,1.043,0,.413-.102.769-.303,1.068-.201.297-.49.519-.865.667l1.262,1.803h-1.099ZM223.648,80.56c-.231-.189-.567-.282-1.014-.282h-1.191v2.187h1.191c.446,0,.783-.095,1.014-.285.229-.191.344-.461.344-.813s-.116-.618-.344-.807Z"/>
      <path class="cls-1" d="M227.365,84.618c-.45-.243-.802-.58-1.058-1.011-.256-.431-.386-.913-.386-1.448s.13-1.015.386-1.447c.257-.431.609-.769,1.058-1.011.449-.244.953-.365,1.512-.365s1.067.121,1.516.365c.449.243.802.579,1.058,1.007.257.428.386.912.386,1.451s-.129,1.022-.386,1.452c-.256.428-.609.764-1.058,1.007-.449.244-.956.365-1.516.365s-1.063-.122-1.512-.365ZM229.867,83.843c.292-.166.524-.396.692-.69.166-.296.251-.627.251-.993s-.085-.696-.251-.992c-.168-.295-.4-.525-.692-.69-.292-.164-.623-.247-.989-.247-.364,0-.694.083-.986.247-.295.165-.523.395-.692.69-.168.296-.251.627-.251.992s.083.697.251.993c.168.295.397.525.692.69.292.164.623.247.986.247.366,0,.697-.083.989-.247Z"/>
      <path class="cls-1" d="M236.579,79.651c.352.156.623.382.81.674.19.293.284.641.284,1.043,0,.398-.094.744-.284,1.04-.187.295-.458.521-.81.678-.353.157-.769.235-1.245.235h-1.238v1.584h-1.019v-5.49h2.257c.476,0,.892.079,1.245.236ZM236.301,82.176c.229-.189.345-.457.345-.809s-.116-.618-.345-.807c-.231-.189-.567-.282-1.014-.282h-1.19v2.181h1.19c.446,0,.783-.095,1.014-.283Z"/>
      <path class="cls-1" d="M238.849,79.415h1.02v5.49h-1.02v-5.49Z"/>
      <path class="cls-1" d="M242.547,84.618c-.446-.243-.799-.579-1.053-1.007-.253-.43-.38-.914-.38-1.452s.13-1.022.386-1.451c.256-.428.606-.765,1.055-1.007.446-.244.948-.365,1.502-.365.449,0,.859.078,1.231.235.369.156.684.384.94.682l-.658.62c-.396-.428-.887-.644-1.466-.644-.378,0-.714.083-1.011.247-.301.165-.532.394-.7.686-.168.293-.251.626-.251.996s.083.704.251.996c.168.293.4.522.7.688.297.164.634.247,1.011.247.579,0,1.069-.218,1.466-.652l.658.628c-.256.297-.57.525-.945.682-.373.157-.785.236-1.235.236-.554,0-1.055-.122-1.502-.365Z"/>
      <path class="cls-1" d="M247.81,84.803c-.397-.12-.708-.28-.937-.478l.353-.792c.223.178.499.322.827.435.328.112.656.168.984.168.408,0,.714-.065.915-.196s.303-.303.303-.518c0-.157-.058-.287-.171-.389-.113-.102-.254-.182-.427-.238-.171-.058-.408-.124-.705-.197-.419-.099-.758-.198-1.017-.297-.259-.099-.48-.255-.667-.467-.185-.212-.279-.497-.279-.858,0-.303.083-.58.248-.828.166-.248.414-.445.744-.593.333-.146.738-.219,1.22-.219.336,0,.664.041.989.125.323.084.603.204.838.361l-.319.792c-.243-.142-.494-.248-.755-.322-.262-.073-.515-.109-.761-.109-.402,0-.703.068-.898.204-.196.135-.292.315-.292.541,0,.156.055.284.168.383.113.1.253.179.427.235.174.058.408.124.706.197.408.094.744.192,1.003.293.261.102.485.257.672.467.184.209.278.492.278.847,0,.303-.083.577-.248.824-.165.245-.414.441-.75.588-.333.146-.741.219-1.223.219-.422,0-.832-.061-1.226-.18Z"/>
    </g>
  </g>
</svg>