<?xml version="1.0" encoding="UTF-8"?>
<svg id="Layer_1" data-name="Layer 1" xmlns="http://www.w3.org/2000/svg" viewBox="0 0 525.725 101.957">
  <defs>
    <style>
      .cls-1 {
        fill: #58595b;
      }

      .cls-2 {
        fill: #004282;
      }

      .cls-3 {
        fill: #fff;
      }

      .cls-4 {
        fill: #602d1a;
      }

      .cls-5 {
        fill: #f68b1f;
      }

      .cls-6 {
        fill: #319645;
      }
    </style>
  </defs>
  <g>
    <path class="cls-1" d="M274.717,89.729V23.638c-.811-.44-1.362-1.302-1.362-2.292,0-1.442,1.171-2.613,2.613-2.613,1.451,0,2.623,1.171,2.623,2.613,0,1.001-.55,1.862-1.371,2.303v66.081c0,.691-.551,1.251-1.251,1.251-.691,0-1.251-.561-1.251-1.251Z"/>
    <path class="cls-1" d="M260.592,50.667c0,.991-.55,1.852-1.361,2.292v41.154c0,.691-.561,1.251-1.251,1.251s-1.251-.561-1.251-1.251v-41.144c-.821-.441-1.372-1.301-1.372-2.303,0-1.442,1.171-2.613,2.623-2.613,1.442,0,2.613,1.171,2.613,2.613Z"/>
    <g>
      <path class="cls-6" d="M287.591,36.031c0,1.001-.55,1.862-1.371,2.303v51.415c0,5.466-4.295,9.941-9.68,10.241-.19,0-.38.01-.571.01-.18,0-.37,0-.551-.01-5.386-.29-9.69-4.765-9.69-10.241v-51.415c-.821-.441-1.371-1.302-1.371-2.303,0-1.442,1.171-2.613,2.623-2.613,1.442,0,2.613,1.171,2.613,2.613,0,.991-.551,1.852-1.362,2.292v51.425c0,4.135,3.244,7.519,7.308,7.738.14.011.29.011.431.011.15,0,.29,0,.44-.011,4.065-.23,7.308-3.614,7.308-7.738v-51.425c-.811-.441-1.361-1.301-1.361-2.292,0-1.442,1.171-2.613,2.613-2.613,1.452,0,2.623,1.171,2.623,2.613Z"/>
      <path class="cls-6" d="M313.879,61.999c0,9.51-3.544,18.66-9.981,25.748-.02.02-.03.03-.05.04-.22.23-.53.37-.881.37-.09,0-.17-.01-.25-.03-.18-.03-.35-.11-.491-.22-.04-.02-.07-.04-.1-.07-.02-.02-.03-.03-.04-.05-.23-.22-.37-.53-.37-.881v-19.311c-.821-.44-1.372-1.301-1.372-2.292,0-1.442,1.181-2.613,2.623-2.613,1.452,0,2.623,1.171,2.623,2.613,0,1.001-.55,1.862-1.372,2.302v15.807c4.575-6.156,7.158-13.785,7.158-21.413,0-7.568-2.473-14.856-7.148-21.083l-28.26-37.61-28.251,37.61c-9.66,12.854-9.52,29.893.01,42.526v-15.837c-.821-.44-1.371-1.301-1.371-2.302,0-1.442,1.171-2.613,2.623-2.613,1.442,0,2.623,1.171,2.623,2.613,0,1.001-.561,1.862-1.372,2.302v19.311c0,.341-.14.661-.37.881-.01.02-.02.03-.04.05-.03.02-.06.05-.09.07-.14.11-.31.19-.5.22-.08.02-.16.03-.251.03-.21,0-.41-.05-.581-.15-.05-.02-.1-.05-.14-.08-.12-.09-.23-.2-.321-.32-12.353-13.705-13.264-33.506-2.222-48.202L274.968.473c.48-.631,1.531-.631,2.002,0l29.262,38.942c5.005,6.667,7.648,14.476,7.648,22.584Z"/>
    </g>
    <path class="cls-1" d="M296.591,50.667c0,1.001-.55,1.862-1.371,2.303v41.134c0,.691-.561,1.251-1.251,1.251s-1.251-.561-1.251-1.251v-41.144c-.811-.441-1.362-1.301-1.362-2.292,0-1.442,1.171-2.613,2.613-2.613,1.451,0,2.623,1.171,2.623,2.613Z"/>
    <g>
      <path class="cls-1" d="M341.325,54.365c-3.192-1.757-5.695-4.174-7.508-7.253-1.813-3.078-2.718-6.544-2.718-10.397s.905-7.318,2.718-10.397c1.813-3.078,4.324-5.496,7.538-7.253,3.21-1.755,6.797-2.634,10.766-2.634,3.095,0,5.928.519,8.499,1.558,2.567,1.039,4.758,2.578,6.571,4.618l-3.682,3.57c-2.983-3.135-6.706-4.703-11.161-4.703-2.948,0-5.61.662-7.992,1.984-2.379,1.322-4.239,3.144-5.58,5.467-1.341,2.325-2.01,4.922-2.01,7.791s.669,5.468,2.01,7.791c1.341,2.323,3.201,4.146,5.58,5.468,2.382,1.322,5.044,1.983,7.992,1.983,4.419,0,8.139-1.586,11.161-4.76l3.682,3.57c-1.813,2.04-4.012,3.589-6.6,4.646-2.588,1.058-5.43,1.587-8.528,1.587-3.965,0-7.544-.878-10.736-2.635Z"/>
      <path class="cls-1" d="M373.451,19.717c-.699-.681-1.049-1.511-1.049-2.494s.351-1.822,1.049-2.522c.699-.699,1.577-1.048,2.635-1.048s1.934.331,2.635.992c.696.662,1.047,1.483,1.047,2.464,0,1.02-.351,1.879-1.047,2.578-.701.7-1.58,1.048-2.635,1.048s-1.937-.339-2.635-1.019ZM373.365,26.516h5.439v30.03h-5.439v-30.03Z"/>
      <path class="cls-1" d="M418.698,39.463c1.32,1.68,1.981,3.806,1.981,6.374,0,3.439-1.294,6.083-3.88,7.933-2.588,1.851-6.355,2.777-11.305,2.777h-18.926V16.882h17.794c4.531,0,8.036.907,10.509,2.721,2.473,1.813,3.711,4.325,3.711,7.535,0,2.078-.48,3.874-1.444,5.383-.964,1.512-2.258,2.663-3.882,3.457,2.305.644,4.118,1.805,5.442,3.485ZM392.235,21.473v12.692h11.618c2.907,0,5.144-.538,6.712-1.614,1.568-1.077,2.352-2.653,2.352-4.731s-.784-3.655-2.352-4.731c-1.568-1.077-3.805-1.615-6.712-1.615h-11.618ZM412.522,50.371c1.621-1.057,2.435-2.72,2.435-4.986,0-4.42-3.231-6.63-9.69-6.63h-13.033v13.202h13.033c3.211,0,5.627-.528,7.255-1.586Z"/>
      <path class="cls-1" d="M455.978,51.617v4.929h-28.786V16.882h27.99v4.93h-22.324v12.183h19.889v4.817h-19.889v12.805h23.12Z"/>
      <path class="cls-1" d="M466.941,55.612c-2.777-.925-4.958-2.125-6.544-3.598l2.096-4.42c1.512,1.36,3.446,2.464,5.808,3.314,2.361.851,4.79,1.275,7.281,1.275,3.287,0,5.742-.557,7.366-1.672,1.625-1.114,2.438-2.597,2.438-4.448,0-1.359-.445-2.464-1.333-3.315-.887-.849-1.984-1.501-3.287-1.954-1.303-.453-3.145-.963-5.524-1.53-2.983-.716-5.392-1.435-7.225-2.154-1.831-.716-3.399-1.822-4.703-3.315-1.303-1.491-1.954-3.502-1.954-6.034,0-2.116.557-4.023,1.672-5.722,1.114-1.701,2.803-3.06,5.07-4.08,2.267-1.02,5.079-1.53,8.443-1.53,2.341,0,4.646.302,6.913.907,2.267.604,4.212,1.473,5.837,2.606l-1.869,4.534c-1.662-1.058-3.44-1.86-5.327-2.409-1.89-.547-3.741-.822-5.554-.822-3.21,0-5.619.586-7.225,1.757-1.603,1.172-2.408,2.683-2.408,4.534,0,1.359.454,2.464,1.362,3.313.905.85,2.028,1.512,3.37,1.984,1.341.473,3.166.973,5.468,1.502,2.983.718,5.382,1.436,7.196,2.152,1.813.719,3.372,1.814,4.675,3.286,1.303,1.474,1.955,3.457,1.955,5.951,0,2.077-.566,3.975-1.698,5.694-1.135,1.719-2.854,3.079-5.156,4.08-2.305,1.001-5.138,1.502-8.502,1.502-2.984,0-5.863-.463-8.641-1.389Z"/>
      <path class="cls-1" d="M506.517,21.813h-13.599v-4.93h32.807v4.93h-13.599v34.734h-5.61V21.813Z"/>
    </g>
    <g>
      <g>
        <path class="cls-1" d="M332.553,73.609c-.455-.246-.811-.588-1.068-1.023-.259-.437-.386-.928-.386-1.475s.129-1.039.389-1.474.619-.777,1.072-1.023c.455-.248.963-.371,1.526-.371.458,0,.875.08,1.251.24.378.158.696.39.956.693l-.669.63c-.403-.435-.9-.654-1.49-.654-.384,0-.725.084-1.029.251-.302.168-.539.401-.708.697-.171.298-.256.636-.256,1.012s.086.715.256,1.012c.17.298.406.53.708.698.304.167.645.251,1.029.251.589,0,1.086-.221,1.49-.663l.669.638c-.26.303-.579.534-.96.693-.379.16-.798.239-1.254.239-.564,0-1.072-.123-1.526-.371Z"/>
        <path class="cls-1" d="M341.633,73.031v.869h-4.184v-5.578h4.072v.868h-3.036v1.45h2.695v.854h-2.695v1.537h3.148Z"/>
        <path class="cls-1" d="M347.904,68.322v5.578h-.852l-3.075-3.778v3.778h-1.029v-5.578h.853l3.077,3.777v-3.777h1.027Z"/>
        <path class="cls-1" d="M350.694,69.198h-1.849v-.876h4.734v.876h-1.849v4.702h-1.036v-4.702Z"/>
        <path class="cls-1" d="M358.17,73.9l-1.139-1.634c-.049.005-.12.008-.215.008h-1.26v1.625h-1.036v-5.578h2.296c.483,0,.904.08,1.262.239.358.158.634.388.824.685.192.298.287.651.287,1.059,0,.42-.102.781-.307,1.085-.204.302-.498.528-.881.677l1.284,1.833h-1.116ZM357.795,69.485c-.234-.192-.577-.287-1.027-.287h-1.213v2.223h1.213c.451,0,.793-.096,1.027-.29.234-.194.351-.469.351-.826s-.118-.628-.351-.82Z"/>
        <path class="cls-1" d="M364.687,73.031v.869h-4.184v-5.578h4.072v.868h-3.036v1.45h2.695v.854h-2.695v1.537h3.148Z"/>
        <path class="cls-1" d="M369.397,69.19v1.698h2.695v.876h-2.695v2.136h-1.036v-5.578h4.072v.868h-3.036Z"/>
        <path class="cls-1" d="M374.6,73.609c-.456-.246-.816-.589-1.077-1.027-.26-.438-.389-.928-.389-1.471s.128-1.032.389-1.47c.261-.438.62-.781,1.077-1.027.456-.248.97-.371,1.538-.371s1.081.123,1.539.371c.456.246.815.588,1.075,1.023.261.435.39.926.39,1.474s-.13,1.038-.39,1.475c-.26.435-.619.777-1.075,1.023-.458.248-.97.371-1.539.371s-1.082-.123-1.538-.371ZM377.143,72.821c.298-.168.532-.401.701-.701.171-.301.255-.637.255-1.009s-.084-.707-.255-1.008c-.169-.299-.403-.533-.701-.701-.297-.166-.633-.251-1.004-.251s-.707.084-1.004.251c-.298.168-.532.402-.701.701-.171.301-.256.637-.256,1.008s.086.708.256,1.009c.17.299.403.533.701.701.297.167.631.251,1.004.251s.707-.084,1.004-.251Z"/>
        <path class="cls-1" d="M384.053,73.9l-1.139-1.634c-.049.005-.12.008-.215.008h-1.26v1.625h-1.036v-5.578h2.296c.483,0,.904.08,1.262.239.358.158.634.388.824.685.192.298.287.651.287,1.059,0,.42-.102.781-.307,1.085-.204.302-.498.528-.881.677l1.284,1.833h-1.116ZM383.678,69.485c-.234-.192-.577-.287-1.027-.287h-1.213v2.223h1.213c.45,0,.793-.096,1.027-.29.234-.194.351-.469.351-.826s-.118-.628-.351-.82Z"/>
        <path class="cls-1" d="M388.746,68.322h1.036v5.578h-1.036v-5.578Z"/>
        <path class="cls-1" d="M396.404,68.322v5.578h-.852l-3.075-3.778v3.778h-1.029v-5.578h.853l3.076,3.777v-3.777h1.027Z"/>
        <path class="cls-1" d="M399.194,69.198h-1.849v-.876h4.734v.876h-1.849v4.702h-1.036v-4.702Z"/>
        <path class="cls-1" d="M407.203,73.031v.869h-4.184v-5.578h4.072v.868h-3.036v1.45h2.694v.854h-2.694v1.537h3.148Z"/>
        <path class="cls-1" d="M412.303,71.047h.98v2.223c-.287.228-.621.405-1.005.526-.382.122-.775.183-1.179.183-.568,0-1.082-.123-1.538-.371-.456-.246-.816-.588-1.077-1.023-.26-.437-.389-.928-.389-1.475s.129-1.039.389-1.474c.261-.435.622-.777,1.081-1.023.459-.248.975-.371,1.55-.371.467,0,.893.077,1.275.231.382.154.704.379.964.677l-.653.637c-.426-.424-.938-.637-1.539-.637-.393,0-.742.083-1.047.246-.307.165-.545.396-.718.695-.172.297-.259.637-.259,1.019,0,.372.087.706.259,1.005.174.297.411.531.718.701.305.17.652.255,1.04.255.435,0,.818-.096,1.148-.287v-1.737Z"/>
        <path class="cls-1" d="M418.455,73.9l-1.139-1.634c-.048.005-.12.008-.215.008h-1.26v1.625h-1.036v-5.578h2.296c.481,0,.904.08,1.262.239.358.158.636.388.826.685.19.298.285.651.285,1.059,0,.42-.101.781-.308,1.085-.202.302-.498.528-.879.677l1.282,1.833h-1.114ZM418.08,69.485c-.235-.192-.577-.287-1.027-.287h-1.213v2.223h1.213c.451,0,.792-.096,1.027-.29.235-.194.353-.469.353-.826s-.118-.628-.353-.82Z"/>
        <path class="cls-1" d="M424.407,72.609h-2.789l-.549,1.291h-1.069l2.511-5.578h1.022l2.514,5.578h-1.081l-.56-1.291ZM424.066,71.796l-1.053-2.438-1.041,2.438h2.094Z"/>
        <path class="cls-1" d="M427.772,69.198h-1.851v-.876h4.734v.876h-1.848v4.702h-1.036v-4.702Z"/>
        <path class="cls-1" d="M435.779,73.031v.869h-4.183v-5.578h4.071v.868h-3.035v1.45h2.693v.854h-2.693v1.537h3.147Z"/>
        <path class="cls-1" d="M437.097,68.322h2.438c.594,0,1.122.115,1.585.346.462.231.82.559,1.075.981.257.422.384.91.384,1.462s-.126,1.04-.384,1.463c-.255.422-.613.748-1.075.98-.462.231-.991.347-1.585.347h-2.438v-5.578ZM439.488,73.024c.409,0,.767-.078,1.078-.235.31-.157.551-.381.716-.669.168-.29.252-.626.252-1.009s-.084-.718-.252-1.008c-.166-.29-.406-.512-.716-.669-.311-.157-.669-.235-1.078-.235h-1.355v3.826h1.355Z"/>
        <path class="cls-1" d="M450.88,71.505c.182.237.271.531.271.881,0,.485-.184.857-.557,1.12-.372.263-.915.395-1.626.395h-2.772v-5.578h2.612c.661,0,1.167.129,1.523.386.355.257.534.612.534,1.064,0,.276-.064.521-.193.733-.126.213-.303.376-.524.494.308.101.551.269.731.505ZM447.232,69.134v1.538h1.464c.361,0,.641-.064.834-.194.193-.13.291-.321.291-.57,0-.255-.098-.448-.291-.578-.193-.13-.473-.196-.834-.196h-1.464ZM450.107,72.282c0-.536-.401-.805-1.204-.805h-1.672v1.609h1.672c.803,0,1.204-.267,1.204-.805Z"/>
        <path class="cls-1" d="M453.015,73.33c-.431-.433-.644-1.053-.644-1.86v-3.148h1.036v3.108c0,1.094.47,1.642,1.417,1.642.941,0,1.411-.548,1.411-1.642v-3.108h1.019v3.148c0,.807-.213,1.428-.641,1.86-.425.433-1.025.649-1.797.649s-1.369-.217-1.8-.649Z"/>
        <path class="cls-1" d="M458.867,68.322h1.036v5.578h-1.036v-5.578Z"/>
        <path class="cls-1" d="M461.568,68.322h1.036v4.702h2.918v.876h-3.953v-5.578Z"/>
        <path class="cls-1" d="M466.501,68.322h2.438c.593,0,1.122.115,1.585.346.462.231.82.559,1.074.981.258.422.384.91.384,1.462s-.126,1.04-.384,1.463c-.254.422-.613.748-1.074.98-.462.231-.991.347-1.585.347h-2.438v-5.578ZM468.892,73.024c.409,0,.767-.078,1.078-.235.311-.157.551-.381.717-.669.168-.29.252-.626.252-1.009s-.084-.718-.252-1.008c-.166-.29-.406-.512-.717-.669-.31-.157-.669-.235-1.078-.235h-1.355v3.826h1.355Z"/>
        <path class="cls-1" d="M473.245,68.322h1.036v5.578h-1.036v-5.578Z"/>
        <path class="cls-1" d="M480.902,68.322v5.578h-.851l-3.077-3.778v3.778h-1.027v-5.578h.851l3.077,3.777v-3.777h1.027Z"/>
        <path class="cls-1" d="M486.366,71.047h.98v2.223c-.285.228-.621.405-1.002.526-.384.122-.775.183-1.181.183-.568,0-1.08-.123-1.537-.371-.456-.246-.815-.588-1.075-1.023-.26-.437-.392-.928-.392-1.475s.132-1.039.392-1.474c.261-.435.619-.777,1.078-1.023.462-.248.977-.371,1.551-.371.468,0,.893.077,1.277.231.381.154.703.379.963.677l-.652.637c-.426-.424-.938-.637-1.54-.637-.392,0-.742.083-1.047.246-.305.165-.546.396-.716.695-.174.297-.261.637-.261,1.019,0,.372.087.706.261,1.005.171.297.411.531.716.701.305.17.652.255,1.039.255.437,0,.82-.096,1.148-.287v-1.737Z"/>
        <path class="cls-1" d="M495.412,73.031v.869h-4.183v-5.578h4.071v.868h-3.035v1.45h2.693v.854h-2.693v1.537h3.147Z"/>
        <path class="cls-1" d="M501.683,68.322v5.578h-.851l-3.077-3.778v3.778h-1.028v-5.578h.851l3.077,3.777v-3.777h1.027Z"/>
        <path class="cls-1" d="M507.526,73.031v.869h-4.183v-5.578h4.071v.868h-3.035v1.45h2.693v.854h-2.693v1.537h3.147Z"/>
        <path class="cls-1" d="M512.489,73.9l-1.139-1.634c-.048.005-.118.008-.216.008h-1.257v1.625h-1.036v-5.578h2.292c.485,0,.907.08,1.266.239.358.158.632.388.823.685.193.298.288.651.288,1.059,0,.42-.103.781-.308,1.085-.204.302-.498.528-.879.677l1.282,1.833h-1.117ZM512.117,69.485c-.235-.192-.577-.287-1.031-.287h-1.209v2.223h1.209c.454,0,.795-.096,1.031-.29.232-.194.35-.469.35-.826s-.118-.628-.35-.82Z"/>
        <path class="cls-1" d="M518.634,71.047h.98v2.223c-.286.228-.622.405-1.002.526-.384.122-.775.183-1.181.183-.568,0-1.081-.123-1.537-.371-.456-.246-.815-.588-1.075-1.023-.261-.437-.392-.928-.392-1.475s.131-1.039.392-1.474c.26-.435.619-.777,1.078-1.023.462-.248.977-.371,1.551-.371.467,0,.893.077,1.277.231.38.154.703.379.963.677l-.652.637c-.425-.424-.938-.637-1.539-.637-.392,0-.742.083-1.047.246-.305.165-.546.396-.717.695-.174.297-.26.637-.26,1.019,0,.372.086.706.26,1.005.171.297.411.531.717.701.305.17.652.255,1.038.255.437,0,.82-.096,1.148-.287v-1.737Z"/>
        <path class="cls-1" d="M523.542,71.932v1.968h-1.036v-1.953l-2.192-3.625h1.108l1.635,2.717,1.649-2.717h1.019l-2.183,3.61Z"/>
      </g>
      <g>
        <path class="cls-1" d="M335.505,84.976h-2.79l-.55,1.291h-1.067l2.51-5.578h1.021l2.518,5.578h-1.085l-.557-1.291ZM335.162,84.163l-1.051-2.438-1.044,2.438h2.095Z"/>
        <path class="cls-1" d="M342.971,80.689v5.578h-.853l-3.075-3.778v3.778h-1.029v-5.578h.852l3.077,3.777v-3.777h1.028Z"/>
        <path class="cls-1" d="M344.628,80.689h2.439c.595,0,1.124.115,1.586.346s.822.559,1.076.981c.255.422.382.91.382,1.462s-.128,1.04-.382,1.463c-.255.422-.615.749-1.076.98s-.991.347-1.586.347h-2.439v-5.578ZM347.02,85.391c.409,0,.77-.079,1.08-.235.31-.157.549-.381.716-.669.168-.29.251-.625.251-1.009s-.083-.718-.251-1.008-.406-.512-.716-.669c-.311-.157-.672-.235-1.08-.235h-1.355v3.826h1.355Z"/>
        <path class="cls-1" d="M354.213,86.164c-.401-.122-.72-.284-.953-.486l.358-.805c.23.181.51.327.841.442.332.113.665.171,1.001.171.414,0,.724-.066.928-.199s.306-.308.306-.526c0-.16-.057-.291-.171-.395-.115-.103-.259-.185-.435-.242-.175-.059-.415-.126-.717-.2-.426-.101-.768-.202-1.031-.302-.263-.101-.49-.259-.678-.475-.189-.215-.283-.505-.283-.872,0-.308.082-.589.251-.841.168-.252.42-.452.757-.602.337-.148.75-.222,1.239-.222.34,0,.675.042,1.005.127.329.086.613.207.853.367l-.327.805c-.244-.144-.5-.251-.764-.327-.266-.074-.524-.111-.774-.111-.409,0-.712.069-.911.207-.2.138-.299.321-.299.55,0,.159.057.289.171.39.115.102.261.182.435.239.175.059.415.126.717.2.414.095.754.195,1.021.298.266.104.493.262.682.475.187.213.283.5.283.861,0,.308-.084.586-.252.837-.166.249-.42.448-.76.598-.34.148-.755.223-1.243.223-.431,0-.847-.062-1.247-.183Z"/>
        <path class="cls-1" d="M359.499,85.697c-.429-.433-.645-1.053-.645-1.86v-3.148h1.036v3.108c0,1.095.473,1.642,1.419,1.642.939,0,1.41-.547,1.41-1.642v-3.108h1.021v3.148c0,.808-.214,1.428-.641,1.86-.428.433-1.027.65-1.797.65s-1.371-.217-1.802-.65Z"/>
        <path class="cls-1" d="M365.832,86.164c-.402-.122-.72-.284-.953-.486l.358-.805c.23.181.51.327.842.442.331.113.665.171,1,.171.415,0,.724-.066.928-.199s.307-.308.307-.526c0-.16-.058-.291-.171-.395-.115-.103-.259-.185-.435-.242-.175-.059-.414-.126-.716-.2-.426-.101-.769-.202-1.032-.302-.263-.101-.49-.259-.678-.475-.189-.215-.283-.505-.283-.872,0-.308.083-.589.251-.841.168-.252.42-.452.757-.602.337-.148.75-.222,1.239-.222.34,0,.675.042,1.005.127.329.086.613.207.852.367l-.327.805c-.244-.144-.5-.251-.764-.327-.266-.074-.524-.111-.774-.111-.409,0-.713.069-.912.207-.2.138-.299.321-.299.55,0,.159.058.289.171.39.115.102.26.182.435.239.175.059.414.126.717.2.414.095.754.195,1.02.298.266.104.493.262.682.475.188.213.283.5.283.861,0,.308-.084.586-.251.837-.167.249-.42.448-.76.598-.34.148-.754.223-1.243.223-.431,0-.847-.062-1.247-.183Z"/>
        <path class="cls-1" d="M371.574,81.565h-1.849v-.876h4.734v.876h-1.849v4.702h-1.036v-4.702Z"/>
        <path class="cls-1" d="M378.738,84.976h-2.789l-.55,1.291h-1.067l2.51-5.578h1.021l2.518,5.578h-1.085l-.557-1.291ZM378.395,84.163l-1.051-2.438-1.044,2.438h2.095Z"/>
        <path class="cls-1" d="M381.248,80.689h1.036v5.578h-1.036v-5.578Z"/>
        <path class="cls-1" d="M388.905,80.689v5.578h-.852l-3.076-3.778v3.778h-1.029v-5.578h.853l3.077,3.777v-3.777h1.027Z"/>
        <path class="cls-1" d="M394.182,84.976h-2.79l-.55,1.291h-1.067l2.51-5.578h1.021l2.518,5.578h-1.085l-.557-1.291ZM393.839,84.163l-1.051-2.438-1.044,2.438h2.095Z"/>
        <path class="cls-1" d="M401.378,83.872c.181.236.27.53.27.88,0,.485-.186.857-.557,1.12-.373.263-.914.395-1.627.395h-2.773v-5.578h2.615c.658,0,1.166.129,1.522.386s.533.612.533,1.064c0,.276-.063.521-.19.733s-.304.376-.526.494c.308.101.553.268.733.505ZM397.728,81.501v1.538h1.467c.361,0,.638-.064.833-.194.193-.13.291-.321.291-.57,0-.255-.098-.448-.291-.578-.195-.13-.472-.196-.833-.196h-1.467ZM400.605,84.649c0-.536-.401-.805-1.203-.805h-1.674v1.61h1.674c.802,0,1.203-.267,1.203-.805Z"/>
        <path class="cls-1" d="M402.915,80.689h1.036v5.578h-1.036v-5.578Z"/>
        <path class="cls-1" d="M405.616,80.689h1.036v4.702h2.917v.876h-3.953v-5.578Z"/>
        <path class="cls-1" d="M410.549,80.689h1.036v5.578h-1.036v-5.578Z"/>
        <path class="cls-1" d="M414.384,81.565h-1.849v-.876h4.733v.876h-1.848v4.702h-1.036v-4.702Z"/>
        <path class="cls-1" d="M420.537,84.299v1.968h-1.039v-1.953l-2.192-3.625h1.108l1.635,2.717,1.649-2.717h1.019l-2.181,3.61Z"/>
        <path class="cls-1" d="M425.915,80.689h1.036v5.578h-1.036v-5.578Z"/>
        <path class="cls-1" d="M433.571,80.689v5.578h-.851l-3.077-3.778v3.778h-1.028v-5.578h.851l3.077,3.777v-3.777h1.027Z"/>
        <path class="cls-1" d="M438.72,81.565h-1.85v-.876h4.734v.876h-1.848v4.702h-1.036v-4.702Z"/>
        <path class="cls-1" d="M447.502,80.689v5.578h-1.036v-2.391h-2.883v2.391h-1.036v-5.578h1.036v2.303h2.883v-2.303h1.036Z"/>
        <path class="cls-1" d="M453.345,85.398v.869h-4.183v-5.578h4.071v.868h-3.035v1.45h2.693v.854h-2.693v1.537h3.147Z"/>
        <path class="cls-1" d="M458.149,81.565h-1.851v-.876h4.734v.876h-1.848v4.702h-1.036v-4.702Z"/>
        <path class="cls-1" d="M465.623,86.267l-1.139-1.634c-.048.006-.118.009-.215.009h-1.257v1.625h-1.036v-5.578h2.293c.484,0,.907.08,1.265.24.358.158.633.388.823.684.193.298.288.651.288,1.059,0,.42-.104.781-.308,1.085-.204.302-.498.528-.879.678l1.282,1.832h-1.117ZM465.251,81.852c-.235-.192-.577-.287-1.03-.287h-1.21v2.223h1.21c.454,0,.795-.096,1.03-.29.232-.194.35-.469.35-.826s-.118-.628-.35-.82Z"/>
        <path class="cls-1" d="M469.028,85.976c-.457-.246-.815-.589-1.075-1.027-.26-.438-.392-.928-.392-1.471s.132-1.031.392-1.47c.261-.438.619-.781,1.075-1.027.456-.248.968-.371,1.537-.371s1.084.123,1.54.371c.456.246.815.588,1.075,1.023.261.435.392.926.392,1.474s-.131,1.038-.392,1.475c-.26.435-.619.776-1.075,1.023-.456.248-.972.371-1.54.371s-1.08-.123-1.537-.371ZM471.569,85.188c.297-.168.532-.402.703-.701.168-.301.255-.637.255-1.009s-.086-.707-.255-1.008c-.171-.299-.406-.533-.703-.701-.297-.167-.633-.251-1.005-.251-.369,0-.705.084-1.002.251-.299.168-.532.401-.703.701-.171.301-.255.637-.255,1.008s.084.708.255,1.009c.171.299.403.533.703.701.297.166.633.251,1.002.251.372,0,.708-.084,1.005-.251Z"/>
        <path class="cls-1" d="M478.389,80.928c.358.158.633.388.823.684.193.298.289.651.289,1.059,0,.405-.096.756-.289,1.057-.19.299-.465.529-.823.689-.358.16-.781.239-1.265.239h-1.257v1.61h-1.036v-5.578h2.293c.484,0,.907.08,1.265.24ZM478.106,83.494c.232-.192.35-.465.35-.822s-.118-.628-.35-.82c-.235-.192-.577-.287-1.03-.287h-1.209v2.216h1.209c.454,0,.795-.096,1.03-.287Z"/>
        <path class="cls-1" d="M480.696,80.689h1.036v5.578h-1.036v-5.578Z"/>
        <path class="cls-1" d="M484.453,85.976c-.454-.246-.812-.588-1.069-1.023-.257-.437-.386-.929-.386-1.475s.132-1.039.392-1.474c.26-.435.616-.777,1.072-1.023.454-.248.963-.371,1.526-.371.456,0,.873.08,1.251.239.375.158.695.39.955.693l-.669.63c-.403-.435-.901-.654-1.489-.654-.384,0-.725.084-1.027.251-.305.168-.54.4-.711.697-.171.298-.255.636-.255,1.012s.084.715.255,1.012c.171.298.406.53.711.699.302.166.644.251,1.027.251.588,0,1.086-.221,1.489-.662l.669.638c-.26.302-.579.533-.96.693-.379.16-.798.24-1.255.24-.562,0-1.072-.123-1.526-.371Z"/>
        <path class="cls-1" d="M489.8,86.164c-.403-.122-.72-.284-.952-.486l.358-.805c.227.181.507.327.84.442.333.113.666.171.999.171.414,0,.725-.066.93-.199s.308-.308.308-.526c0-.16-.059-.291-.173-.395-.115-.103-.258-.185-.434-.242-.173-.059-.414-.126-.716-.2-.426-.101-.77-.202-1.033-.302-.263-.101-.487-.259-.678-.475-.187-.215-.283-.505-.283-.872,0-.308.084-.589.252-.841.168-.252.42-.452.756-.602.339-.148.75-.222,1.24-.222.342,0,.675.042,1.005.127.328.086.613.207.851.367l-.325.805c-.246-.144-.502-.251-.767-.327-.266-.074-.524-.111-.773-.111-.409,0-.714.069-.913.207-.199.138-.297.321-.297.55,0,.159.056.289.171.39.115.102.257.182.434.239.176.059.414.126.717.2.414.095.756.195,1.019.298.266.104.492.262.683.475.187.213.283.5.283.861,0,.308-.084.586-.252.837-.168.249-.42.448-.762.598-.338.148-.753.223-1.243.223-.428,0-.845-.062-1.246-.183Z"/>
      </g>
    </g>
  </g>
  <g>
    <polygon class="cls-2" points="87.905 60.09 89.902 60.09 94.423 68.342 94.454 68.342 94.454 60.09 95.922 60.09 95.922 70.34 94.043 70.34 89.402 61.914 89.374 61.914 89.374 70.34 87.905 70.34 87.905 60.09 87.905 60.09"/>
    <path class="cls-2" d="M102.837,67.434c0,1.115-.72,1.966-2.086,1.966-.629,0-1.395-.426-1.395-1.218,0-1.321,1.851-1.44,2.602-1.44.292,0,.584.029.879.029v.662h0ZM98.813,64.554c.557-.469,1.395-.761,2.173-.761,1.381,0,1.851.66,1.851,1.953-.543-.029-.925-.029-1.469-.029-1.423,0-3.479.585-3.479,2.466,0,1.628,1.131,2.335,2.746,2.335,1.262,0,1.996-.693,2.32-1.147h.028v.969h1.294c-.03-.221-.06-.617-.06-1.469v-3.096c0-2.04-.866-3.099-3.01-3.099-.955,0-1.776.292-2.466.706l.072,1.173h0Z"/>
    <path class="cls-2" d="M110.531,63.967h-1.983v4.096c0,.868.53,1.337,1.161,1.337.427,0,.735-.133.94-.265v1.175c-.309.088-.733.206-1.174.206-1.425,0-2.305-.676-2.305-2.176v-4.375h-1.689v-1.115h1.689v-1.735l1.379-.438v2.173h1.983v1.115h0Z"/>
    <path class="cls-2" d="M112.44,70.34h1.381v-7.488h-1.381v7.488h0ZM113.909,59.622h-1.558v1.556h1.558v-1.556h0Z"/>
    <path class="cls-2" d="M117.313,66.596c0-1.424.867-2.803,2.35-2.803,1.468,0,2.335,1.38,2.335,2.803,0,1.337-.719,2.805-2.335,2.805-1.629,0-2.35-1.468-2.35-2.805h0ZM115.846,66.596c0,2.141,1.556,3.921,3.817,3.921,2.246,0,3.803-1.78,3.803-3.921,0-2.276-1.526-3.921-3.803-3.921-2.29,0-3.817,1.644-3.817,3.921h0Z"/>
    <path class="cls-2" d="M125.318,62.852h1.335v1.189h.028c.411-.852,1.411-1.366,2.452-1.366,1.938,0,2.806,1.205,2.806,3.216v4.448h-1.382v-3.875c0-1.748-.379-2.6-1.585-2.672-1.571,0-2.276,1.261-2.276,3.082v3.465h-1.378v-7.488h0Z"/>
    <path class="cls-2" d="M138.736,67.434c0,1.115-.719,1.966-2.084,1.966-.632,0-1.396-.426-1.396-1.218,0-1.321,1.849-1.44,2.6-1.44.292,0,.587.029.88.029v.662h0ZM134.712,64.554c.559-.469,1.396-.761,2.172-.761,1.381,0,1.852.66,1.852,1.953-.543-.029-.925-.029-1.469-.029-1.423,0-3.479.585-3.479,2.466,0,1.628,1.13,2.335,2.745,2.335,1.263,0,1.997-.693,2.321-1.147h.028v.969h1.293c-.029-.221-.06-.617-.06-1.469v-3.096c0-2.04-.866-3.099-3.011-3.099-.951,0-1.774.292-2.464.706l.071,1.173h0Z"/>
    <polygon class="cls-2" points="142.628 59.327 144.007 59.327 144.007 70.34 142.628 70.34 142.628 59.327 142.628 59.327"/>
    <path class="cls-2" d="M158.31,66.097c0,2.878-1.453,4.421-3.978,4.421s-3.979-1.543-3.979-4.421v-6.007h1.469v5.816c0,1.968.615,3.317,2.51,3.317s2.509-1.349,2.509-3.317v-5.816h1.469v6.007h0Z"/>
    <path class="cls-2" d="M160.808,62.852h1.336v1.189h.029c.412-.852,1.412-1.366,2.451-1.366,1.939,0,2.807,1.205,2.807,3.216v4.448h-1.381v-3.875c0-1.748-.382-2.6-1.587-2.672-1.571,0-2.277,1.261-2.277,3.082v3.465h-1.378v-7.488h0Z"/>
    <path class="cls-2" d="M169.954,62.852h1.381v7.488h-1.381v-7.488h0ZM171.423,61.177h-1.556v-1.556h1.556v1.556h0Z"/>
    <polygon class="cls-2" points="177.178 70.34 175.535 70.34 172.848 62.852 174.359 62.852 176.387 68.961 176.415 68.961 178.485 62.852 179.866 62.852 177.178 70.34 177.178 70.34"/>
    <path class="cls-2" d="M182.171,65.876c.103-.969.66-2.083,2.012-2.083,1.187,0,1.863.94,1.863,2.083h-3.875ZM186.942,68.652c-.337.279-1.393.748-2.304.748-1.305,0-2.467-1.015-2.467-2.497h5.345c0-2.407-.809-4.229-3.304-4.229-2.114,0-3.51,1.571-3.51,3.79,0,2.435,1.219,4.052,3.877,4.052,1.234,0,1.836-.297,2.364-.486v-1.38h0Z"/>
    <path class="cls-2" d="M189.366,62.852h1.292v1.159h.031c.365-.779,1.159-1.336,1.951-1.336.41,0,.616.044.911.104v1.231c-.25-.103-.53-.131-.764-.131-1.234,0-2.041,1.174-2.041,3.055v3.405h-1.38v-7.488h0Z"/>
    <path class="cls-2" d="M194.521,68.87c.541.353,1.32.53,1.715.53.632,0,1.411-.265,1.411-1.072,0-1.365-3.247-1.249-3.247-3.349,0-1.556,1.161-2.305,2.645-2.305.647,0,1.174.133,1.719.292l-.119,1.207c-.308-.193-1.13-.381-1.453-.381-.704,0-1.32.292-1.32.911,0,1.525,3.244,1.086,3.244,3.479,0,1.599-1.279,2.335-2.615,2.335-.704,0-1.424-.074-2.056-.412l.076-1.235h0Z"/>
    <path class="cls-2" d="M200.963,62.852h1.382v7.488h-1.382v-7.488h0ZM202.433,61.177h-1.556v-1.556h1.556v1.556h0Z"/>
    <path class="cls-2" d="M208.849,63.967h-1.98v4.096c0,.868.526,1.337,1.158,1.337.428,0,.735-.133.94-.265v1.175c-.308.088-.734.206-1.173.206-1.425,0-2.306-.676-2.306-2.176v-4.375h-1.689v-1.115h1.689v-1.735l1.381-.438v2.173h1.98v1.115h0Z"/>
    <path class="cls-2" d="M210.025,72.365c.175.061.409.119.644.119,1.233,0,1.644-1.705,1.644-1.851,0-.161-.175-.543-.264-.792l-2.54-6.989h1.512l2.012,6.198h.028l2.058-6.198h1.396l-2.761,7.649c-.514,1.438-1.059,3.098-2.877,3.098-.443,0-.693-.059-.94-.103l.088-1.131h0Z"/>
    <path class="cls-2" d="M88.756,83.948c0-1.423.866-2.803,2.35-2.803,1.468,0,2.335,1.381,2.335,2.803,0,1.335-.72,2.806-2.335,2.806-1.631,0-2.35-1.471-2.35-2.806h0ZM87.288,83.948c0,2.144,1.556,3.922,3.818,3.922,2.245,0,3.803-1.778,3.803-3.922,0-2.276-1.528-3.922-3.803-3.922-2.289,0-3.818,1.646-3.818,3.922h0Z"/>
    <path class="cls-2" d="M97.652,81.321h-1.762v-1.116h1.762v-.693c0-1.818.473-3.008,2.513-3.008.353,0,.646.043.923.087l-.056,1.116c-.162-.059-.428-.086-.662-.086-1.188,0-1.336.762-1.336,1.775v.808h1.983v1.116h-1.983v6.37h-1.381v-6.37h0Z"/>
    <path class="cls-2" d="M110.929,78.986c-.748-.292-1.16-.427-1.922-.427-.824,0-1.793.296-1.793,1.367,0,1.97,4.406,1.511,4.406,4.89,0,2.186-1.688,3.054-3.744,3.054-.718,0-1.425-.208-2.098-.428l.145-1.363c.498.204,1.381.497,2.13.497.836,0,2.011-.469,2.011-1.675,0-2.289-4.405-1.656-4.405-4.843,0-1.824,1.439-2.791,3.292-2.791.675,0,1.481.117,2.186.365l-.206,1.353h0Z"/>
    <path class="cls-2" d="M113.66,80.205h1.381v7.485h-1.381v-7.485h0ZM115.129,78.529h-1.556v-1.554h1.556v1.554h0Z"/>
    <path class="cls-2" d="M117.567,80.205h1.337v1.188h.028c.412-.852,1.41-1.367,2.451-1.367,1.939,0,2.806,1.206,2.806,3.219v4.445h-1.381v-3.875c0-1.747-.381-2.598-1.586-2.67-1.57,0-2.276,1.263-2.276,3.082v3.464h-1.38v-7.485h0Z"/>
    <path class="cls-2" d="M129.593,86.576c-1.294,0-2.085-1.234-2.085-2.644,0-1.276.692-2.788,2.085-2.788,1.468,0,2.186,1.335,2.186,2.892,0,1.395-.894,2.539-2.186,2.539h0ZM133.162,80.205h-1.28v1.116h-.028c-.411-.807-1.144-1.294-2.467-1.294-2.261,0-3.347,2.058-3.347,3.982,0,1.936,1.055,3.682,3.198,3.682.956,0,1.927-.38,2.513-1.158h.027v.734c0,1.586-.866,2.569-2.32,2.569-1.013,0-1.643-.19-2.701-.673l-.148,1.277c1.205.41,1.895.513,2.687.513,2.688,0,3.864-1.306,3.864-3.584v-7.163h0Z"/>
    <path class="cls-2" d="M139.957,84.785c0,1.116-.718,1.97-2.085,1.97-.632,0-1.394-.428-1.394-1.221,0-1.318,1.851-1.437,2.599-1.437.294,0,.587.03.88.03v.659h0ZM135.937,81.906c.556-.47,1.393-.761,2.172-.761,1.379,0,1.849.66,1.849,1.952-.541-.03-.924-.03-1.468-.03-1.424,0-3.479.589-3.479,2.466,0,1.631,1.129,2.337,2.745,2.337,1.261,0,1.997-.692,2.321-1.148h.029v.968h1.29c-.027-.218-.056-.612-.056-1.467v-3.097c0-2.042-.869-3.1-3.011-3.1-.953,0-1.776.295-2.467.709l.075,1.171h0Z"/>
    <path class="cls-2" d="M149.326,83.918c.029,1.176-.587,2.836-2.071,2.836-1.555,0-2.202-1.543-2.202-2.791,0-1.393.72-2.818,2.217-2.818s2.086,1.425,2.057,2.773h0ZM143.673,90.776h1.38v-4.111h.03c.426.691,1.174,1.206,2.496,1.206,2.261,0,3.216-1.998,3.216-4.055,0-2.011-1.057-3.789-3.23-3.789-1.322,0-2.174.679-2.541,1.236h-.027v-1.057h-1.323v10.571h0Z"/>
    <path class="cls-2" d="M153.613,83.948c0-1.423.867-2.803,2.35-2.803,1.468,0,2.334,1.381,2.334,2.803,0,1.335-.719,2.806-2.334,2.806-1.63,0-2.35-1.471-2.35-2.806h0ZM152.145,83.948c0,2.144,1.556,3.922,3.817,3.922,2.245,0,3.802-1.778,3.802-3.922,0-2.276-1.526-3.922-3.802-3.922-2.292,0-3.817,1.646-3.817,3.922h0Z"/>
    <path class="cls-2" d="M161.616,80.205h1.292v1.16h.028c.368-.78,1.161-1.338,1.954-1.338.409,0,.616.045.91.105v1.233c-.25-.103-.528-.133-.762-.133-1.233,0-2.042,1.176-2.042,3.054v3.404h-1.38v-7.485h0Z"/>
    <path class="cls-2" d="M168.295,83.228c.104-.967.661-2.083,2.013-2.083,1.189,0,1.864.939,1.864,2.083h-3.877ZM173.068,86.005c-.337.279-1.397.749-2.305.749-1.308,0-2.468-1.016-2.468-2.497h5.344c0-2.408-.805-4.231-3.302-4.231-2.113,0-3.51,1.573-3.51,3.789,0,2.437,1.219,4.055,3.877,4.055,1.234,0,1.836-.295,2.364-.486v-1.38h0Z"/>
    <path class="cls-2" d="M182.813,39.66c2.812,2.592,8.352,4.958,15.12,5.063,5.932.101,10.717-1.685,11.011-6.603.629-10.646-26.671-6.386-25.612-24.357.526-8.993,9.454-11.971,19.087-11.807,5.205.088,10.411,1.322,13.263,2.771l.012,6.386c-3.48-2.387-8.336-3.906-12.354-3.982-6.111-.112-10.962,1.013-11.039,5.48-.165,9.317,27.375,7.082,26.322,24.905-.59,10.036-10.344,13.114-20.553,12.927-5.872-.081-11.623-1.273-15.244-3.127l-.014-7.656h0Z"/>
    <path class="cls-2" d="M156.988,50.493c-12.681,0-19.983-5.696-19.983-17.412V3.34h9.508l.004,29.741c0,7.283,3.497,11.702,10.471,11.702s10.473-4.419,10.473-11.702l.004-29.741h9.502v29.741c0,11.716-7.3,17.412-19.978,17.412h0Z"/>
    <path class="cls-2" d="M121.562,3.34v33.503l-21.788-31.132c-1.032-1.437-2.735-2.371-4.632-2.371h-7.213v45.682h6.338V15.5l21.752,31.039c1.033,1.482,2.747,2.484,4.709,2.484h7.171V3.34h-6.336Z"/>
    <path class="cls-2" d="M77.016,50.811V3.54H.006v47.307c-.004.04-.006.163-.006.364C0,53.445.484,65.262,9.987,80.233c10.381,16.381,27.51,21.444,28.233,21.65l.259.074.258-.074c.726-.206,17.91-5.268,28.298-21.65,10.356-16.321,9.998-28.895,9.979-29.421h0Z"/>
    <path class="cls-3" d="M65.367,78.819c-9.33,14.716-24.817,20.083-26.968,20.77-2.145-.688-17.581-6.054-26.907-20.77h0C2.14,64.087,1.8,52.274,1.8,50.661c0-.115.002-.179.002-.187v-16.735h73.254v16.7c0,.011.004.076.004.196,0,1.654-.346,13.457-9.692,28.184h0Z"/>
    <path class="cls-4" d="M53.762,40.638l.016-.003h0s-.01.002-.016.003h0Z"/>
    <path class="cls-5" d="M36.076,8.981c-.132-.023-3.266-.576-7.009-.576-2.966,0-5.643.891-6.82,1.345-1.176-.455-3.854-1.345-6.819-1.345-3.742,0-6.877.552-7.009.576l-.421.075v19.936l.621-.136c.026-.006,2.619-.562,6.438-.562,2.87,0,5.845.799,7.017,1.222l.173.063.178-.063c1.171-.423,4.144-1.222,7.016-1.222,3.818,0,6.411.557,6.436.562l.621.136V9.056l-.421-.076h0Z"/>
    <path class="cls-3" d="M21.757,10.675c-1.186-.445-3.633-1.22-6.306-1.22-2.896,0-5.45.346-6.408.493v15.07c1.001-.171,3.157-.47,6.035-.47,2.58,0,5.16.589,6.678,1.058v-14.931h0Z"/>
    <path class="cls-3" d="M29.091,9.455c-2.708,0-5.185.795-6.353,1.238v14.929c1.51-.471,4.116-1.073,6.726-1.073,2.878,0,5.033.299,6.034.47v-15.07c-.957-.147-3.511-.493-6.407-.493h0Z"/>
    <path class="cls-2" d="M11.884,11.968c-.371.1-.575.439-.463.759.114.321.507.499.877.4.019-.006,1.933-.344,3.564-.344,1.48,0,3.14.672,3.158.68.361.117.765-.042.9-.356.136-.313-.048-.663-.409-.782-.081-.027-1.91-.753-3.649-.753-1.848,0-3.893.374-3.978.396h0Z"/>
    <path class="cls-2" d="M11.884,14.961c-.371.099-.575.44-.463.76.114.32.507.498.877.399.019-.003,1.933-.343,3.564-.343,1.48,0,3.14.673,3.158.679.361.117.765-.043.9-.356.136-.313-.048-.662-.409-.78-.081-.026-1.91-.755-3.649-.755-1.848,0-3.893.375-3.978.397h0Z"/>
    <path class="cls-2" d="M11.884,17.956c-.371.099-.575.44-.463.759.114.321.507.5.877.401.019-.005,1.933-.344,3.564-.344,1.48,0,3.14.672,3.158.677.361.119.765-.041.9-.354.136-.315-.048-.663-.409-.781-.081-.027-1.91-.757-3.649-.757-1.848,0-3.893.374-3.978.398h0Z"/>
    <path class="cls-2" d="M11.884,20.949c-.371.101-.575.441-.463.759.114.321.507.499.877.4.019-.005,1.933-.345,3.564-.345,1.48,0,3.14.676,3.158.68.361.118.765-.04.9-.354.136-.313-.048-.664-.409-.782-.081-.025-1.91-.756-3.649-.756-1.848,0-3.893.377-3.978.398h0Z"/>
    <path class="cls-2" d="M32.716,11.968c.368.1.574.439.461.759-.114.321-.506.499-.876.4-.019-.006-1.933-.344-3.565-.344-1.479,0-3.139.672-3.158.68-.36.117-.764-.042-.899-.356-.137-.313.047-.663.408-.782.081-.027,1.911-.753,3.649-.753,1.848,0,3.893.374,3.98.396h0Z"/>
    <path class="cls-2" d="M32.716,14.961c.368.099.574.44.461.76-.114.32-.506.498-.876.399-.019-.003-1.933-.343-3.565-.343-1.479,0-3.139.673-3.158.679-.36.117-.764-.043-.899-.356-.137-.313.047-.662.408-.78.081-.026,1.911-.755,3.649-.755,1.848,0,3.893.375,3.98.397h0Z"/>
    <path class="cls-2" d="M32.716,17.956c.368.099.574.44.461.759-.114.321-.506.5-.876.401-.019-.005-1.933-.344-3.565-.344-1.479,0-3.139.672-3.158.677-.36.119-.764-.041-.899-.354-.137-.315.047-.663.408-.781.081-.027,1.911-.757,3.649-.757,1.848,0,3.893.374,3.98.398h0Z"/>
    <path class="cls-2" d="M32.716,20.949c.368.101.574.441.461.759-.114.321-.506.499-.876.4-.019-.005-1.933-.345-3.565-.345-1.479,0-3.139.676-3.158.68-.36.118-.764-.04-.899-.354-.137-.313.047-.664.408-.782.081-.025,1.911-.756,3.649-.756,1.848,0,3.893.377,3.98.398h0Z"/>
    <path class="cls-2" d="M71.746,47.346c-.377-1.378-1.073-1.987-1.999-2.479-2.554-1.355-5.889-.406-8.814.591-2.207.752-2.873.979-5.374,1.362-1.889.29-8.208,1.108-10.205-.543-.287-.236-.574-.755-.604-1.089-.056-.69.256-1.511.495-1.772.505-.552,1.681-.82,3.598-.82l4.892.077c.307.393,1.089,1.027,3.076,1.452,3.161.674,6.636-.422,6.636-.422,0,0-.574-.115-1.053-.474-.422-.316-.387-.791-.387-.791,0,0,.697.337,1.711.305,1.264-.036,1.849-.637,3.029-.936,1.18-.3,2.494-.053,2.494-.053,0,0-1.192-1.273-2.374-1.499-1.177-.225-2.648.077-2.648.077,0,0,.369-.165.808-.562.352-.316.422-.86.422-.86,0,0-1.412.548-2.844.473-1.434-.075-1.328-.591-4.108-.667-2.108-.057-3.849,1.196-4.57,1.806-2.254-.147-4.029-.227-5.067-.227-2.865,0-4.52.469-5.531,1.569-.845.918-1.212,2.107-1.091,3.534.093,1.11.589,2.043,1.472,2.772,2.675,2.212,9.846,1.533,12.384,1.085,2.843-.502,3.692-.721,5.338-1.267l.094-.032c1.273-.425,5.149-1.721,6.774-.858.33.174.556.501.693,1.001.061.224.093.426.093.612,0,.336-.103.618-.312.874-1.479,1.809-7.046,2.117-9.463,2.247-.267-.063-1.883-.426-4.029-.438-1.435-.008-2.638.083-3.912.179-2.323.176-4.725.358-8.715-.098-1.851-.212-3.585-.55-4.891-.936-.061-.496-.294-.969-.789-1.524.957.309,2.201-.742,2.551-1.266-.005-.052-1.7-.501-1.801-1.602-.004-.034,1.201.1,1.701-1.551-1.202-.651-.824-.89-1.401-1.702-.509-.713-1.246-1.072-2.152-1.05.366-.047.399,0,.8-.202.521-.261.884-.979,1.402-.95-1.045-1.636-3.852-1.852-5.017-1.507.299-.372.758-.784.763-1.294-1.552.428-3.073-.379-4.637-.086-1.296.243-2.036.77-2.443,2.002h-.06c-.409-1.232-1.147-1.758-2.444-2.002-1.565-.293-3.086.513-4.639.086.008.51.466.921.763,1.294-1.162-.345-3.969-.129-5.015,1.507.518-.03.879.689,1.401.95.46.231.552.185.801.202-.905-.023-1.642.337-2.152,1.05-.579.811-.2,1.051-1.401,1.702.501,1.651,1.704,1.516,1.702,1.551-.101,1.101-1.798,1.55-1.802,1.602.35.524,1.594,1.576,2.552,1.266-.786.879-.917,1.552-.737,2.437-1.221-.925-2.426-1.948-3.066-2.795-.15-.218-.629-1.795-.947-2.839l-.259-.849s-.127-.451-.127-.451c-.382-1.406-.751-2.582-1.39-2.738-.352-.084-.663-.103-.945-.085-.221-.344-.527-.707-.887-.819-.74-.226-1.098-.064-1.098-.064,0,0,.599.43.801.873.051.114.084.221.104.319-.136.077-.256.159-.357.242l-.054.044c-.076.061-.179.146-.29.246-.05-.016-.102-.028-.153-.035-.769-.101-1.097.122-1.097.122,0,0,.418.204.727.489-.267.372-.488.849-.488,1.438,0,.058.006.119.012.18-.735.056-1.006.322-1.006.322,0,0,.713.192,1.059.533.038.038.071.076.102.114-.033.038-.059.066-.059.066-.148.233-.213.497-.213.77,0,.64.359,1.332.852,1.783,0,0,1.318,1.091,1.441,1.193.522,1.163,1.098,2.186,1.477,2.616.117.148.922,1.534,1.774,3.001.114.196.23.396.348.599.183.9.39,2.02.483,2.9.169,1.584.008,3.352.008,3.352,0,0,1.026-.051,1.491-.72.009-.017.378,1.098.324,2.352-.04.928-.288,2.215-.288,2.215,0,0,1-.53,1.753-1.196.378-.334.762-.887.994-1.25.827.528,3.195-.314,4.377-.79.231.47.547.989.983,1.577.172-.709.929-1.064,1.28-1.631.107,0,.214-.001.322-.002.043.776-.181,1.505.553,2.957.208.41,1.226,1.928,1.966,2.708-.28,1.313-.812,3.709-1.363,5.672-.63,2.245-1.14,3.358-1.432,3.878-.843.041-2.389.093-2.879.072-1.175-.056-2.045.19-2.585.731-.04.04-.072.081-.106.122-.41.057-.881.186-1.136.472-.511.579-.515.975-.515.975,0,0,.64-.369,1.126-.369.036,0,.069.003.103.005,0,.041,0,.076,0,.1.005.113.072.297.179.52-.079.058-.15.122-.207.196-.472.613-.446,1.008-.446,1.008,0,0,.6-.402,1.083-.442.151.24.321.488.498.729-.021.025-.042.049-.06.076-.425.648-.369,1.039-.369,1.039,0,0,.476-.373.925-.496.154.175.306.333.449.459.706.622,2.462.219,4.686-.373l1.38-.34c.973-.181,1.578-.57,2.024-1.3.106-.173.202-.457.352-.906l.131-.388c.306-.863.546-1.414,1.157-2.393.019-.03.615-.988,1.427-2.309.719-.598,1.586-1.294,2.216-1.719.962-.649,2.877-1.627,2.877-1.627,0,0-.512-.83-1.272-.943-.016-.003.971-1.004,1.796-1.361.931-.406,2.13-.626,2.13-.626,0,0-.436-.897-1.112-1.331.281-.092.539-.256.859-.467,1.617-1.054,2.81-1.018,3.934-.702.045-.729-.139-1.176-.772-1.598.533-.227,1.082-.419,1.665-.559.369.633.786,1.333.976,1.602.834,1.182,2.087,2.808,3.102,3.826.027.026.038.073.038.137,0,.426-.519,1.603-.815,2.276l-.255.58s-1.021,2.401-1.319,3.102c-.594.034-2.317.128-2.921.098-1.145-.054-1.993.185-2.52.711-.067.067-.125.136-.176.204-.426.076-.938.232-1.191.554-.478.61-.459,1.003-.459,1.003,0,0,.618-.404,1.102-.433.076-.005.146-.002.213.003.02.129.09.311.2.529-.114.081-.213.174-.283.282-.424.648-.368,1.037-.368,1.037,0,0,.579-.455,1.061-.526.018-.003.034-.003.052-.005.116.179.241.359.37.535-.046.046-.09.095-.125.148-.425.648-.37,1.041-.37,1.041,0,0,.555-.438,1.029-.521.148.17.293.321.426.437.677.597,2.122.242,4.09-.324l1.401-.366c.95-.177,1.541-.557,1.975-1.268,0,0,.371-.794.371-.794.173-.402.369-.858.521-1.095.228-.359.468-.792.711-1.258.33-.283.637-.54.853-.706.627-.481,2.222-1.359,2.222-1.359,0,0-.317-.699-.967-.764-.008-.001.632-.714,1.401-1.16.546-.317,1.629-.505,1.629-.505,0,0-.748-.632-1.314-.879-.228-.099-.529-.166-.81-.215-.036-.325-.206-.688-.518-1.168-.559-.864.259-2.722.846-3.774.295.417.825,1.109,1.709,2.091,0,0,2.838,3.105,3.466,3.793-.122.495-.521,2.043-1.15,3.752-.454,1.243-1.102,2.539-1.434,3.176-.683.038-2.233.118-2.799.092-1.145-.055-1.993.184-2.521.711-.089.089-.158.18-.22.272-.385.092-.802.253-1.019.538-.468.619-.44,1.012-.44,1.012,0,0,.463-.436,1.093-.452.029,0,.055,0,.082.001.03.133.104.314.212.523-.112.08-.209.171-.279.277-.424.649-.368,1.04-.368,1.04,0,0,.578-.459,1.058-.528.018-.003.035-.003.052-.005.149.226.311.455.477.673-.003.005-.007.008-.01.013-.425.647-.369,1.04-.369,1.04,0,0,.427-.339.854-.478.124.137.245.261.356.359.679.599,2.129.243,4.103-.326l1.39-.365c.948-.176,1.539-.555,1.975-1.267.193-.317,1.055-2.328,1.294-2.909.426-1.046.906-2.124,1.371-3.111.233-.197.453-.375.629-.497.775-.539,2.437-1.487,2.437-1.487,0,0-.332-.711-.968-.764-.008-.002.651-.633,1.31-1.054.61-.391,1.719-.611,1.719-.611,0,0-.798-.607-1.364-.852-.333-.145-.805-.237-1.141-.288-.097-.472-.336-.629-.694-.811-.317-.161-.753-.383-1.416-1.163-.853-1.003-.981-2.92-.981-4.834,0-.42.006-.841.013-1.251l.004-1.837c-.057-2.157-.373-3.664-.671-4.657,2.813-.256,7.971-.825,10.083-3.409.634-.776.955-1.684.955-2.674,0-.442-.064-.901-.193-1.371h0Z"/>
    <path class="cls-5" d="M32.251,45.226c.441-.305,1.493-1.177.931-2.239-.596-1.12-1.966-.663-2.373-.495-.057-.058-3.09-1.377-3.131-1.354.028-.02-1.185,1.403-1.184,1.403,0,0-1.208-1.423-1.182-1.403-.041-.023-3.074,1.296-3.13,1.354-.407-.167-1.776-.624-2.373.495-.564,1.062.488,1.934.929,2.239-.006.018-.01.026-.01.026,0,0-.989,1.753-.977,1.732.016-.028,2.858,3.443,2.857,3.443.003-.008-.005,2.233-.005,2.243,0,0,1.13.76,1.217.783.18.852.235,1.292.434,1.752.063.149,1.147.465,2.2.484h.085c1.052-.018,2.135-.334,2.199-.484.198-.46.254-.901.434-1.752.087-.023,1.21-.783,1.21-.783.003.004,0-2.237.003-2.243-.003,0,2.842-3.471,2.857-3.443.011.021-.977-1.732-.977-1.732,0,0-.005-.008-.013-.026h0ZM22.424,45.4l2.539-.029h.101s-.095,1.477-.095,1.477l-2.545-1.448h0ZM28.353,46.883c.013.117.405,3.539.405,3.539,0,0-1.857,1.007-1.949,1.058,0,.098-.011,1.179-.012,1.262.085.066.42.317.768.463.626.266,1.255.109,1.261.107l.158-.04-.134.469-.057.011c-.03.005-.736.135-1.311-.039-.5-.152-.761-.344-.83-.4h-.303c-.069.052-.344.247-.849.4-.574.174-1.281.044-1.31.039l-.057-.011-.134-.469.158.04c.006.002.634.158,1.263-.107.345-.147.682-.399.766-.463,0-.084-.005-1.189-.005-1.276-.075-.054-1.942-1.382-1.942-1.382,0,0,3.299-.004,3.476-.004v-4.631l2.748-.022.347-.003s-2.357,1.399-2.457,1.458h0Z"/>
    <path class="cls-5" d="M51.559,70.818c.374-.346.562-.536.562-.783,0-.212-.138-.465-.418-.896-.211-.326-.296-.718-.296-1.136,0-1.385.923-3.051,1.286-3.656-.104-.13-.251-.32-.433-.57-.097-.064-.182-.121-.234-.157-.235-.166-.841-.676-1.218-1.173-.051-.07-.106-.157-.161-.251-.781-.023-2.603-.076-4.477.495.578.333.712.764.737,1.316-1.234-.268-2.276-.284-3.212-.148.326.557.662,1.117.819,1.339.817,1.158,2.041,2.748,3.025,3.734.16.16.229.372.229.63,0,.61-.384,1.481-.861,2.564l-.252.575-1.488,3.5-.217.013c-.1.006-2.448.149-3.215.11-.838-.04-1.479.102-1.872.407.046.161.079.371.02.57-.077.262-.242.395-.374.463.017.037.038.077.06.12.461-.154.902-.197.902-.197,0,0,.255.335.151.754-.082.32-.236.488-.346.572.032.044.063.088.095.132.521-.21,1.089-.267,1.089-.267,0,0,.267.407.178.846-.047.238-.167.375-.277.453.628.2,2.253-.266,3.264-.557l1.466-.382c.754-.141,1.175-.405,1.503-.942l.325-.707c.184-.427.393-.911.574-1.196.453-.71.964-1.75,1.458-2.755.643-1.31,1.199-2.441,1.608-2.819h0Z"/>
    <path class="cls-5" d="M23.55,61.788c.002.015,0,.027.001.042h.012c-.005-.014-.008-.028-.014-.042h0Z"/>
    <path class="cls-5" d="M20.525,57.748c-.454.684-1.279,1.003-2.347,1.136.202-1.066.018-1.795-.375-2.638-.342-.744-1.281-2.202-1.559-3.029-.079-.234-.153-.451-.221-.657-1.486-1.08-3.118-2.394-3.937-3.48-.194-.256-.485-1.173-1.058-3.058l-.258-.845-.134-.474c-.377-1.387-.675-2.14-.884-2.24-.143-.034-.275-.051-.402-.061v.002s-.065.424-.78.391c-.167-.007-.306-.063-.414-.125-.061.039-.119.079-.169.12l-.059.047c-.036.028-.071.058-.106.088.418.379.72.869.72.869,0,0-.159.435-.704.532-.392.068-.697-.211-.697-.211,0,0,.005-.135-.05-.331-.165.319-.241.69-.157,1.125.553.285,1.03.801,1.03.801,0,0-.013.409-.581.695-.214.109-.433.046-.576-.022-.071.421.165,1.016.603,1.416l1.539,1.272.033.076c.489,1.102,1.064,2.135,1.398,2.515.126.143.583.923,1.855,3.112,1.688,2.904,4.239,7.294,4.895,8.025.253.236,1.992-.169,3.71-.855-.614-1.697-.081-2.735-.315-4.195h0Z"/>
    <path class="cls-5" d="M71.073,47.527c-.313-1.144-.843-1.615-1.65-2.044-2.307-1.224-5.472-.314-8.258.635-2.372.808-3.026,1.014-5.494,1.392-2.515.386-8.598,1.092-10.76-.696-.433-.358-.81-1.047-.857-1.571-.07-.862.294-1.889.677-2.307.662-.725,1.932-1.049,4.118-1.049,0,0,3.28.052,5.092.08l.382-.344-.373-.399c-2.266-.148-4.051-.23-5.084-.23-2.648,0-4.148.401-5.014,1.342-.705.767-1.01,1.775-.908,2.998.078.915.488,1.685,1.22,2.288,2.274,1.882,8.941,1.442,11.813.934,2.799-.494,3.631-.709,5.238-1.241l.093-.032c1.486-.497,5.435-1.817,7.327-.813.51.27.852.74,1.043,1.436.234.849.118,1.541-.353,2.118-1.684,2.058-7.101,2.35-10.01,2.507l-.063.003-.05-.013c-.017-.004-1.707-.417-3.917-.43-1.406-.008-2.595.082-3.854.177-2.356.178-4.792.363-8.848-.101-1.802-.206-3.5-.535-4.83-.915-.084.544-.301,1.161-.571,1.961-.278.827-1.215,2.286-1.56,3.03-.392.844-.575,1.572-.376,2.638-1.066-.133-1.89-.452-2.346-1.136-.32,2.003.812,3.205-1.568,6.415-.238-.971-1.572-1.275-1.454-2.375-.419,1.143.254,1.807-.701,3.7-.24.476-1.575,2.443-2.298,3.017-.293,1.363-.808,3.66-1.338,5.552-.724,2.579-1.315,3.748-1.602,4.215l-.097.157-.184.01c-.765.041-2.566.106-3.137.081-.792-.038-1.413.083-1.824.346.038.197.059.477-.061.682-.143.245-.342.352-.447.394.018.042.04.089.066.143.513-.146,1.031-.158,1.031-.158,0,0,.213.431-.007.953-.089.212-.214.317-.305.369.05.071.1.141.152.211.544-.24,1.179-.304,1.179-.304,0,0,.247.321.086.983-.05.206-.161.309-.255.362.717.224,2.73-.311,3.862-.613,0,0,1.431-.352,1.431-.352.778-.145,1.213-.418,1.553-.976.069-.113.184-.457.284-.761,0,0,.134-.398.135-.399.318-.897.582-1.505,1.224-2.533,1.465-2.343,5.795-9.425,5.971-9.994.005-.029.007-.065.007-.107,0-.374-.183-1.202-.331-1.729l-.093-.335s14.022-4.1,14.833-4.337c-.283-.489-.863-1.491-.863-1.491l.511-.461c.046.033,1.123.816,1.716,1.408.519.521,1.021,1.325,1.553,2.175l.271.432c.6.951,1.192,1.655,1.197,1.663l.022.026.016.028c.005.008.474.824,1.942,2.456l3.713,4.064-.041.18c-.005.019-.444,1.91-1.218,4.014-.507,1.386-1.261,2.866-1.562,3.438l-.093.176-.198.011c-.713.04-2.438.132-3.074.103-.785-.038-1.397.084-1.795.35.054.185.104.47-.005.694-.122.248-.3.385-.401.448.016.032.034.066.053.103.464-.155.908-.2.908-.2,0,0,.225.366.152.831-.051.311-.213.452-.334.516.045.062.091.124.137.186.558-.27,1.254-.339,1.254-.339,0,0,.235.323.155.823-.037.232-.194.388-.319.48.721.085,2.166-.33,3.095-.598,0,0,1.456-.38,1.457-.38.752-.14,1.174-.404,1.503-.943.142-.233.941-2.073,1.243-2.809.879-2.158,2.178-4.887,3.018-6.347l.467-.736c.276-.411.514-.766.492-1.008-.029-.329-.047-.338-.347-.49-.35-.178-.879-.446-1.634-1.335-1.211-1.425-1.171-4.148-1.136-6.551l.004-1.808c-.062-2.375-.447-3.961-.759-4.872l-.146-.425.447-.04c2.597-.231,7.999-.711,10.028-3.193.768-.939.985-2.119.629-3.413h0Z"/>
    <path class="cls-3" d="M57.079,19.643c.304.397.559.834.75,1.305-.246.033-.496.056-.75.056s-.505-.02-.751-.053c.191-.472.446-.909.751-1.307h0Z"/>
    <path class="cls-5" d="M65.446,15.648c.003-.09.014-.179.014-.27,0-4.621-3.76-8.381-8.381-8.381s-8.381,3.76-8.381,8.381l.01.273c-2.656,1.408-4.471,4.198-4.471,7.408,0,4.621,3.76,8.381,8.381,8.381,1.594,0,3.13-.45,4.467-1.295,1.293.816,2.818,1.295,4.456,1.295,4.622,0,8.381-3.76,8.381-8.381,0-3.097-1.748-5.969-4.475-7.411h0ZM56.43,23.712l.649.047c.219,0,.434-.016.649-.033-.087.675-.306,1.32-.647,1.908-.336-.58-.562-1.229-.65-1.922h0ZM60.988,22.786c1.597-.846,2.883-2.196,3.66-3.834,1.288.972,2.048,2.468,2.048,4.106,0,2.843-2.313,5.156-5.156,5.156-.715,0-1.397-.147-2.018-.412.965-1.397,1.476-3.024,1.476-4.744l-.01-.273h0ZM52.617,14.678c-.22,0-.436.016-.652.033.324-2.556,2.476-4.488,5.114-4.488,2.621,0,4.787,1.967,5.109,4.502l-.648-.047c-1.588,0-3.117.447-4.452,1.286-1.305-.821-2.842-1.286-4.471-1.286h0ZM61.54,17.903l.028.002c-.347.614-.816,1.147-1.374,1.572-.192-.408-.412-.797-.661-1.162.632-.267,1.316-.412,2.007-.412h0ZM49.505,18.957c.774,1.64,2.053,2.976,3.664,3.827-.003.092-.011.182-.011.275,0,1.758.547,3.39,1.476,4.739-.635.27-1.321.417-2.018.417-2.843,0-5.156-2.313-5.156-5.156,0-1.674.805-3.159,2.044-4.102h0ZM53.962,19.482c-.559-.427-1.028-.966-1.374-1.577.01,0,.019-.002.029-.002.711,0,1.393.146,2.019.411-.258.374-.482.764-.674,1.168h0Z"/>
    <path class="cls-3" d="M58.67,23.642c.473-.092.929-.229,1.37-.397-.028,1.507-.497,2.929-1.363,4.148-.379-.252-.72-.555-1.019-.895.577-.854.923-1.828,1.012-2.855h0Z"/>
    <path class="cls-3" d="M57.077,7.983c4.105,0,7.443,3.339,7.443,7.443s-3.339,7.443-7.443,7.443l-.683-.05c.025-.457.106-.902.246-1.328l.436.029c3.36,0,6.094-2.734,6.094-6.094s-2.734-6.094-6.094-6.094c-3.2,0-5.79,2.41-6.063,5.551-.474.092-.931.229-1.373.398.079-4.037,3.381-7.298,7.436-7.298h0Z"/>
    <path class="cls-3" d="M61.539,15.664l.68.049c-.026.461-.109.907-.248,1.328l-.432-.028c-.901,0-1.787.211-2.596.593-.315-.363-.656-.699-1.025-1,1.103-.616,2.341-.942,3.62-.942h0Z"/>
    <path class="cls-3" d="M52.615,30.55c-4.104,0-7.443-3.339-7.443-7.443s3.339-7.443,7.443-7.443c2.953,0,5.567,1.702,6.774,4.364-.4.202-.827.358-1.277.45-1.01-2.116-3.127-3.465-5.497-3.465-3.36,0-6.094,2.734-6.094,6.094s2.734,6.094,6.094,6.094c.906,0,1.797-.214,2.609-.6.314.36.654.697,1.025,1-1.107.621-2.35.949-3.634.949h0Z"/>
    <path class="cls-3" d="M51.582,18.055c.454.945,1.153,1.768,2.014,2.37-.152.451-.264.916-.337,1.391-1.301-.778-2.325-1.929-2.953-3.312.399-.201.826-.356,1.276-.448h0Z"/>
    <path class="cls-3" d="M61.539,30.55c-4.105,0-7.443-3.339-7.443-7.443,0-1.563.477-3.039,1.373-4.299.377.25.719.551,1.02.895-.682,1.007-1.044,2.175-1.044,3.405,0,3.36,2.734,6.094,6.094,6.094s6.094-2.734,6.094-6.094c0-2.02-.979-3.854-2.624-4.995.153-.45.265-.916.34-1.396,2.225,1.333,3.633,3.772,3.633,6.391,0,4.104-3.339,7.443-7.443,7.443h0Z"/>
  </g>
</svg>